<?xml version="1.0" encoding="UTF-8"?>
<!-- Generator: visioncortex VTracer 0.6.3 -->
<svg version="1.1" xmlns="http://www.w3.org/2000/svg" width="1280" height="1205">
<path d="M0 0 C2.5 0.03 5 0.02 7.5 0.01 C20.77 0.02 33.2 1.85 45.8 6.22 C46.92 6.59 46.92 6.59 48.06 6.97 C54.48 9.21 60.52 12.04 66.57 15.15 C73.01 17.77 77.17 16.14 83.29 13.57 C84.24 13.16 85.2 12.76 86.18 12.34 C102.47 5.67 120.05 0.36 137.76 0.26 C139.05 0.25 139.05 0.25 140.37 0.25 C142.19 0.24 144.02 0.23 145.84 0.23 C148.57 0.22 151.3 0.19 154.03 0.15 C183.72 -0.03 215.28 8.91 237.43 29.65 C238.58 30.9 239.7 32.17 240.8 33.47 C241.66 34.46 242.51 35.46 243.39 36.49 C250.06 44.53 255.52 52.9 259.8 62.47 C260.14 63.15 260.48 63.84 260.83 64.55 C264.9 73.91 264.36 83.38 264.3 93.39 C264.31 95.4 264.31 97.4 264.32 99.41 C264.33 103.71 264.33 108.02 264.32 112.32 C264.3 119.13 264.32 125.94 264.34 132.74 C264.37 145.97 264.37 159.19 264.37 172.41 C264.36 189.24 264.38 206.08 264.41 222.92 C264.43 229.68 264.43 236.44 264.42 243.21 C264.41 247.42 264.42 251.63 264.43 255.84 C264.43 257.78 264.43 259.73 264.42 261.68 C264.41 264.35 264.42 267.01 264.43 269.68 C264.42 270.44 264.42 271.2 264.41 271.99 C264.46 277.33 265.09 282.78 267.8 287.47 C273.76 291.39 273.76 291.39 285.8 293.47 C285.8 324.82 285.8 356.17 285.8 388.47 C123.11 388.47 -39.58 388.47 -207.2 388.47 C-208.84 385.18 -208.34 381.53 -208.34 377.92 C-208.35 377.03 -208.35 376.15 -208.35 375.24 C-208.36 372.3 -208.36 369.37 -208.36 366.44 C-208.37 364.4 -208.37 362.37 -208.37 360.34 C-208.38 356.07 -208.38 351.81 -208.38 347.55 C-208.38 342.07 -208.4 336.6 -208.41 331.12 C-208.42 326.92 -208.43 322.73 -208.43 318.53 C-208.43 316.51 -208.43 314.49 -208.44 312.47 C-208.45 309.65 -208.45 306.83 -208.44 304.02 C-208.45 302.75 -208.45 302.75 -208.46 301.47 C-208.42 295.69 -208.42 295.69 -206.2 293.47 C-203.54 293.02 -200.94 292.67 -198.26 292.4 C-192.65 291.84 -192.65 291.84 -187.2 290.47 C-184.28 284.8 -184.07 278.8 -184.15 272.54 C-184.15 271.87 -184.16 271.19 -184.17 270.5 C-184.19 268.26 -184.22 266.02 -184.25 263.78 C-184.27 262.17 -184.29 260.55 -184.3 258.94 C-184.35 254.58 -184.41 250.21 -184.47 245.84 C-184.52 241.27 -184.58 236.7 -184.63 232.13 C-184.72 224.46 -184.82 216.78 -184.92 209.11 C-185.04 200.24 -185.14 191.36 -185.25 182.49 C-185.35 173.95 -185.45 165.41 -185.56 156.88 C-185.6 153.24 -185.65 149.61 -185.69 145.97 C-185.74 141.7 -185.79 137.42 -185.85 133.15 C-185.87 131.57 -185.89 130 -185.91 128.43 C-185.93 126.29 -185.96 124.15 -185.99 122.01 C-186.01 120.81 -186.02 119.62 -186.04 118.38 C-186.07 115.4 -186.07 115.4 -187.2 112.47 C-191.65 109.64 -195.3 109.07 -200.51 108.9 C-202.74 108.83 -204.97 108.7 -207.2 108.47 C-208.92 105.03 -208.34 101.06 -208.34 97.28 C-208.35 96.32 -208.35 95.37 -208.35 94.39 C-208.36 91.23 -208.36 88.07 -208.36 84.9 C-208.37 82.71 -208.37 80.52 -208.37 78.34 C-208.38 73.74 -208.38 69.15 -208.38 64.56 C-208.38 58.66 -208.4 52.76 -208.41 46.86 C-208.42 42.34 -208.43 37.81 -208.43 33.29 C-208.43 31.12 -208.43 28.94 -208.44 26.77 C-208.45 23.73 -208.45 20.69 -208.44 17.66 C-208.45 16.75 -208.45 15.85 -208.46 14.91 C-208.42 8.69 -208.42 8.69 -206.2 6.47 C-203.9 6.19 -203.9 6.19 -200.97 6.15 C-199.85 6.13 -198.74 6.11 -197.59 6.09 C-196.36 6.08 -195.14 6.06 -193.87 6.05 C-191.92 6.02 -191.92 6.02 -189.94 5.99 C-186.36 5.94 -182.78 5.9 -179.2 5.87 C-176.95 5.84 -174.71 5.81 -172.46 5.79 C-147.54 5.47 -122.62 5.36 -97.69 5.34 C-95.07 5.34 -92.44 5.34 -89.81 5.33 C-85.67 5.33 -81.52 5.33 -77.38 5.33 C-75.85 5.33 -74.31 5.33 -72.78 5.33 C-70.69 5.33 -68.6 5.33 -66.5 5.34 C-65.33 5.34 -64.15 5.34 -62.94 5.34 C-60.2 5.47 -60.2 5.47 -58.2 6.47 C-57.57 8.53 -57.57 8.53 -57.2 10.47 C-52.29 9.9 -48.02 8.83 -43.38 7.15 C-29.01 2.19 -15.22 -0.19 0 0 Z M-138.2 6.47 C-138.2 6.8 -138.2 7.13 -138.2 7.47 C-128.96 7.47 -119.72 7.47 -110.2 7.47 C-110.2 7.14 -110.2 6.81 -110.2 6.47 C-119.44 6.47 -128.68 6.47 -138.2 6.47 Z M-184.2 178.47 C-184.2 185.73 -184.2 192.99 -184.2 200.47 C-183.87 200.47 -183.54 200.47 -183.2 200.47 C-183.2 193.21 -183.2 185.95 -183.2 178.47 C-183.53 178.47 -183.86 178.47 -184.2 178.47 Z M-183.2 253.47 C-183.2 258.09 -183.2 262.71 -183.2 267.47 C-182.87 267.47 -182.54 267.47 -182.2 267.47 C-182.2 262.85 -182.2 258.23 -182.2 253.47 C-182.53 253.47 -182.86 253.47 -183.2 253.47 Z M-183.2 279.47 C-182.2 281.47 -182.2 281.47 -182.2 281.47 Z M-206.2 294.47 C-206.2 294.8 -206.2 295.13 -206.2 295.47 C-203.89 295.47 -201.58 295.47 -199.2 295.47 C-199.2 295.14 -199.2 294.81 -199.2 294.47 C-201.51 294.47 -203.82 294.47 -206.2 294.47 Z " fill="#000100" transform="translate(874.196533203125,720.533447265625)"/>
<path d="M0 0 C2.96 0.01 5.91 -0.02 8.87 -0.05 C23.75 -0.11 37.11 1.93 51.04 7.32 C51.69 7.57 52.34 7.82 53.01 8.07 C58.23 10.11 63.13 12.63 67.98 15.44 C74.66 17.88 81.33 14.21 87.54 11.7 C94.42 8.99 101.28 6.53 108.41 4.57 C109.45 4.29 109.45 4.29 110.51 3.99 C119.52 1.61 128.13 0.13 137.47 0.07 C138.47 0.07 139.47 0.06 140.5 0.05 C142.61 0.03 144.72 0.02 146.84 0.02 C149.99 0.01 153.15 -0.04 156.31 -0.09 C176.41 -0.25 194.6 3.74 212.73 12.45 C213.84 12.97 213.84 12.97 214.98 13.51 C231.17 21.32 242.92 32.37 252.73 47.45 C253.26 48.22 253.78 48.99 254.33 49.79 C263.54 63.99 265.61 77.28 265.45 93.85 C265.46 95.84 265.46 97.84 265.47 99.84 C265.48 104.11 265.48 108.37 265.45 112.64 C265.42 119.4 265.43 126.15 265.45 132.91 C265.47 143.59 265.46 154.27 265.43 164.95 C265.4 184.09 265.39 203.23 265.42 222.37 C265.43 229.08 265.42 235.79 265.4 242.5 C265.39 246.67 265.39 250.84 265.39 255.01 C265.39 256.94 265.38 258.87 265.37 260.8 C265.36 263.45 265.36 266.09 265.37 268.73 C265.36 269.48 265.35 270.24 265.34 271.02 C265.39 276.97 266.24 283.46 270.16 288.16 C272.5 290.08 274.76 290.13 277.73 290.51 C281.59 291 283.44 291.26 286.73 293.45 C286.73 324.47 286.73 355.49 286.73 387.45 C124.04 387.45 -38.65 387.45 -206.27 387.45 C-207.91 384.18 -207.42 380.58 -207.42 376.99 C-207.42 376.11 -207.42 375.24 -207.43 374.34 C-207.44 371.44 -207.44 368.53 -207.44 365.63 C-207.44 363.62 -207.45 361.61 -207.45 359.6 C-207.46 355.39 -207.46 351.17 -207.46 346.95 C-207.46 341.54 -207.47 336.12 -207.49 330.71 C-207.5 326.56 -207.5 322.41 -207.5 318.25 C-207.5 316.26 -207.51 314.26 -207.51 312.26 C-207.52 309.48 -207.52 306.69 -207.52 303.9 C-207.52 303.07 -207.53 302.24 -207.53 301.38 C-207.5 295.67 -207.5 295.67 -205.27 293.45 C-203.02 293.03 -200.74 292.71 -198.46 292.45 C-192.14 291.73 -192.14 291.73 -186.27 289.45 C-182.53 282.34 -182.9 273.75 -183.1 265.94 C-183.13 264.14 -183.13 264.14 -183.15 262.31 C-183.2 259.04 -183.27 255.77 -183.34 252.5 C-183.41 249.03 -183.47 245.56 -183.52 242.09 C-183.62 236.24 -183.73 230.39 -183.85 224.53 C-184.01 216.42 -184.15 208.3 -184.29 200.19 C-184.52 186.95 -184.78 173.71 -185.06 160.48 C-185.2 153.66 -185.31 146.84 -185.37 140.02 C-185.41 136.47 -185.46 132.92 -185.51 129.37 C-185.53 127.81 -185.54 126.25 -185.54 124.7 C-185.54 122.63 -185.57 120.57 -185.61 118.51 C-185.62 116.84 -185.62 116.84 -185.63 115.13 C-186.03 112.25 -186.03 112.25 -188.58 110.61 C-192.01 109.13 -195.35 108.72 -199.02 108.38 C-201.47 108.15 -203.84 107.85 -206.27 107.45 C-207.98 104.03 -207.42 100.11 -207.42 96.35 C-207.42 95.4 -207.42 94.46 -207.43 93.49 C-207.44 90.36 -207.44 87.23 -207.44 84.1 C-207.44 81.94 -207.45 79.77 -207.45 77.6 C-207.46 73.05 -207.46 68.51 -207.46 63.96 C-207.46 58.12 -207.47 52.29 -207.49 46.45 C-207.5 41.97 -207.5 37.5 -207.5 33.02 C-207.5 30.87 -207.51 28.71 -207.51 26.56 C-207.52 23.56 -207.52 20.55 -207.52 17.55 C-207.52 16.65 -207.53 15.75 -207.53 14.83 C-207.5 8.67 -207.5 8.67 -205.27 6.45 C-193.56 4.32 -180.88 5.22 -169.02 5.13 C-166.75 5.11 -164.48 5.09 -162.21 5.07 C-157.47 5.02 -152.72 4.98 -147.97 4.94 C-141.97 4.89 -135.97 4.84 -129.97 4.79 C-115.74 4.65 -101.5 4.54 -87.27 4.45 C-86.42 4.44 -85.57 4.43 -84.69 4.43 C-79.81 4.4 -74.93 4.37 -70.06 4.36 C-68.94 4.35 -67.83 4.34 -66.68 4.34 C-65.7 4.33 -64.72 4.33 -63.71 4.33 C-62.89 4.33 -62.07 4.33 -61.22 4.33 C-59.27 4.45 -59.27 4.45 -57.27 5.45 C-57.27 7.1 -57.27 8.75 -57.27 10.45 C-50.96 9.76 -45.43 7.92 -39.47 5.79 C-37.08 4.96 -34.69 4.19 -32.27 3.45 C-31.38 3.17 -30.49 2.89 -29.57 2.6 C-19.79 -0.08 -10.06 -0.04 0 0 Z M-87.27 5.45 C-87.27 5.78 -87.27 6.11 -87.27 6.45 C-81.33 6.45 -75.39 6.45 -69.27 6.45 C-69.27 6.12 -69.27 5.79 -69.27 5.45 C-75.21 5.45 -81.15 5.45 -87.27 5.45 Z M-192.27 6.45 C-192.27 6.78 -192.27 7.11 -192.27 7.45 C-174.45 7.45 -156.63 7.45 -138.27 7.45 C-138.27 7.12 -138.27 6.79 -138.27 6.45 C-156.09 6.45 -173.91 6.45 -192.27 6.45 Z M-184.27 115.45 C-184.27 126.67 -184.27 137.89 -184.27 149.45 C-183.94 149.45 -183.61 149.45 -183.27 149.45 C-183.27 138.23 -183.27 127.01 -183.27 115.45 C-183.6 115.45 -183.93 115.45 -184.27 115.45 Z M-183.27 200.45 C-183.27 206.72 -183.27 212.99 -183.27 219.45 C-182.94 219.45 -182.61 219.45 -182.27 219.45 C-182.27 213.18 -182.27 206.91 -182.27 200.45 C-182.6 200.45 -182.93 200.45 -183.27 200.45 Z M-182.27 253.45 C-182.27 258.07 -182.27 262.69 -182.27 267.45 C-181.94 267.45 -181.61 267.45 -181.27 267.45 C-181.27 262.83 -181.27 258.21 -181.27 253.45 C-181.6 253.45 -181.93 253.45 -182.27 253.45 Z M-182.27 278.45 C-181.27 280.45 -181.27 280.45 -181.27 280.45 Z " fill="#000100" transform="translate(321.27294921875,722.553955078125)"/>
<path d="M0 0 C1.39 1.15 2.77 2.32 4.12 3.5 C5.3 4.51 5.3 4.51 6.5 5.55 C16.37 14.25 25.6 23.57 33.96 33.73 C34.57 34.46 35.18 35.19 35.81 35.94 C36.35 36.6 36.89 37.25 37.45 37.93 C39.33 39.69 40.61 40.11 43.12 40.5 C44.94 38.54 46.75 36.58 48.56 34.62 C49.11 34.03 49.66 33.44 50.22 32.83 C53.43 29.35 56.61 25.85 59.75 22.31 C80.75 -0.98 108.83 -20.26 141.03 -22.72 C144.04 -22.84 147.05 -22.88 150.06 -22.88 C151.14 -22.87 152.22 -22.87 153.34 -22.87 C166.22 -22.68 179.24 -20.78 191.06 -15.42 C193.12 -14.5 195.15 -13.88 197.31 -13.25 C221.99 -5.14 244.38 15.78 256.27 38.52 C260.95 47.86 264.47 57.41 267.12 67.5 C267.6 69.22 267.6 69.22 268.09 70.97 C277.81 112.33 263.36 154.28 241.83 189.33 C240 192.12 238.11 194.82 236.12 197.5 C235.46 198.43 234.79 199.35 234.1 200.31 C221.28 217.77 207.01 233.65 191.75 249 C191.11 249.65 190.47 250.29 189.81 250.96 C185.41 255.34 180.84 259.46 176.12 263.5 C175.25 264.26 175.25 264.26 174.36 265.03 C73.59 352.24 73.59 352.24 39.38 351.87 C33.98 351.26 30.05 348.84 25.5 346 C24.53 345.42 23.56 344.85 22.56 344.25 C19.4 342.36 16.26 340.43 13.12 338.5 C10.88 337.14 8.63 335.78 6.38 334.43 C-5.21 327.39 -16.73 320.23 -27.88 312.5 C-28.9 311.79 -28.9 311.79 -29.95 311.06 C-51.69 295.94 -72.86 279.95 -92.21 261.82 C-94.98 259.23 -97.79 256.7 -100.66 254.23 C-105.46 250.05 -109.95 245.57 -114.44 241.06 C-115.25 240.25 -116.06 239.45 -116.9 238.62 C-121.76 233.74 -126.39 228.73 -130.88 223.5 C-132.19 222.04 -133.5 220.58 -134.81 219.12 C-149.97 202.07 -162.01 182.95 -171.94 162.44 C-172.39 161.51 -172.84 160.58 -173.31 159.63 C-175.9 154.15 -177.79 148.78 -179.25 142.9 C-179.82 140.72 -180.52 138.71 -181.38 136.62 C-192.15 109.01 -188.86 75.09 -177.2 48.4 C-171.06 35.09 -163.23 23.83 -152.88 13.5 C-152.14 12.7 -151.4 11.91 -150.64 11.09 C-112.14 -29.8 -44.03 -33.35 0 0 Z M-78.88 -21.5 C-78.88 -21.17 -78.88 -20.84 -78.88 -20.5 C-75.57 -20.5 -72.27 -20.5 -68.88 -20.5 C-68.88 -20.83 -68.88 -21.16 -68.88 -21.5 C-72.18 -21.5 -75.48 -21.5 -78.88 -21.5 Z M-66.88 -21.5 C-66.88 -21.17 -66.88 -20.84 -66.88 -20.5 C-63.58 -20.5 -60.27 -20.5 -56.88 -20.5 C-56.88 -20.83 -56.88 -21.16 -56.88 -21.5 C-60.17 -21.5 -63.48 -21.5 -66.88 -21.5 Z M138.12 -21.5 C142.12 -20.5 142.12 -20.5 142.12 -20.5 Z M159.12 -21.5 C163.12 -20.5 163.12 -20.5 163.12 -20.5 Z M-185.88 83.5 C-184.88 85.5 -184.88 85.5 -184.88 85.5 Z M-185.88 108.5 C-184.88 110.5 -184.88 110.5 -184.88 110.5 Z M-184.88 116.5 C-183.88 119.5 -183.88 119.5 -183.88 119.5 Z " fill="#000100" transform="translate(579.875,387.5)"/>
<path d="M0 0 C2.5 0.03 5 0.02 7.5 0.01 C20.77 0.02 33.2 1.85 45.8 6.22 C46.92 6.59 46.92 6.59 48.06 6.97 C54.48 9.21 60.52 12.04 66.57 15.15 C73.01 17.77 77.17 16.14 83.29 13.57 C84.24 13.16 85.2 12.76 86.18 12.34 C102.47 5.67 120.05 0.36 137.76 0.26 C139.05 0.25 139.05 0.25 140.37 0.25 C142.19 0.24 144.02 0.23 145.84 0.23 C148.57 0.22 151.3 0.19 154.03 0.15 C183.72 -0.03 215.28 8.91 237.43 29.65 C238.58 30.9 239.7 32.17 240.8 33.47 C241.66 34.46 242.51 35.46 243.39 36.49 C250.06 44.53 255.52 52.9 259.8 62.47 C260.14 63.15 260.48 63.84 260.83 64.55 C264.9 73.91 264.36 83.38 264.3 93.39 C264.31 95.4 264.31 97.4 264.32 99.41 C264.33 103.71 264.33 108.02 264.32 112.32 C264.3 119.13 264.32 125.94 264.34 132.74 C264.37 145.97 264.37 159.19 264.37 172.41 C264.36 189.24 264.38 206.08 264.41 222.92 C264.43 229.68 264.43 236.44 264.42 243.21 C264.41 247.42 264.42 251.63 264.43 255.84 C264.43 257.78 264.43 259.73 264.42 261.68 C264.41 264.35 264.42 267.01 264.43 269.68 C264.42 270.44 264.42 271.2 264.41 271.99 C264.46 277.33 265.09 282.78 267.8 287.47 C273.76 291.39 273.76 291.39 285.8 293.47 C285.8 324.82 285.8 356.17 285.8 388.47 C123.11 388.47 -39.58 388.47 -207.2 388.47 C-208.84 385.18 -208.34 381.53 -208.34 377.92 C-208.35 377.03 -208.35 376.15 -208.35 375.24 C-208.36 372.3 -208.36 369.37 -208.36 366.44 C-208.37 364.4 -208.37 362.37 -208.37 360.34 C-208.38 356.07 -208.38 351.81 -208.38 347.55 C-208.38 342.07 -208.4 336.6 -208.41 331.12 C-208.42 326.92 -208.43 322.73 -208.43 318.53 C-208.43 316.51 -208.43 314.49 -208.44 312.47 C-208.45 309.65 -208.45 306.83 -208.44 304.02 C-208.45 302.75 -208.45 302.75 -208.46 301.47 C-208.42 295.69 -208.42 295.69 -206.2 293.47 C-203.54 293.02 -200.94 292.67 -198.26 292.4 C-192.65 291.84 -192.65 291.84 -187.2 290.47 C-184.28 284.8 -184.07 278.8 -184.15 272.54 C-184.15 271.87 -184.16 271.19 -184.17 270.5 C-184.19 268.26 -184.22 266.02 -184.25 263.78 C-184.27 262.17 -184.29 260.55 -184.3 258.94 C-184.35 254.58 -184.41 250.21 -184.47 245.84 C-184.52 241.27 -184.58 236.7 -184.63 232.13 C-184.72 224.46 -184.82 216.78 -184.92 209.11 C-185.04 200.24 -185.14 191.36 -185.25 182.49 C-185.35 173.95 -185.45 165.41 -185.56 156.88 C-185.6 153.24 -185.65 149.61 -185.69 145.97 C-185.74 141.7 -185.79 137.42 -185.85 133.15 C-185.87 131.57 -185.89 130 -185.91 128.43 C-185.93 126.29 -185.96 124.15 -185.99 122.01 C-186.01 120.81 -186.02 119.62 -186.04 118.38 C-186.07 115.4 -186.07 115.4 -187.2 112.47 C-191.65 109.64 -195.3 109.07 -200.51 108.9 C-202.74 108.83 -204.97 108.7 -207.2 108.47 C-208.92 105.03 -208.34 101.06 -208.34 97.28 C-208.35 96.32 -208.35 95.37 -208.35 94.39 C-208.36 91.23 -208.36 88.07 -208.36 84.9 C-208.37 82.71 -208.37 80.52 -208.37 78.34 C-208.38 73.74 -208.38 69.15 -208.38 64.56 C-208.38 58.66 -208.4 52.76 -208.41 46.86 C-208.42 42.34 -208.43 37.81 -208.43 33.29 C-208.43 31.12 -208.43 28.94 -208.44 26.77 C-208.45 23.73 -208.45 20.69 -208.44 17.66 C-208.45 16.75 -208.45 15.85 -208.46 14.91 C-208.42 8.69 -208.42 8.69 -206.2 6.47 C-203.9 6.19 -203.9 6.19 -200.97 6.15 C-199.85 6.13 -198.74 6.11 -197.59 6.09 C-196.36 6.08 -195.14 6.06 -193.87 6.05 C-191.92 6.02 -191.92 6.02 -189.94 5.99 C-186.36 5.94 -182.78 5.9 -179.2 5.87 C-176.95 5.84 -174.71 5.81 -172.46 5.79 C-147.54 5.47 -122.62 5.36 -97.69 5.34 C-95.07 5.34 -92.44 5.34 -89.81 5.33 C-85.67 5.33 -81.52 5.33 -77.38 5.33 C-75.85 5.33 -74.31 5.33 -72.78 5.33 C-70.69 5.33 -68.6 5.33 -66.5 5.34 C-65.33 5.34 -64.15 5.34 -62.94 5.34 C-60.2 5.47 -60.2 5.47 -58.2 6.47 C-57.57 8.53 -57.57 8.53 -57.2 10.47 C-52.29 9.9 -48.02 8.83 -43.38 7.15 C-29.01 2.19 -15.22 -0.19 0 0 Z M-138.2 6.47 C-138.2 6.8 -138.2 7.13 -138.2 7.47 C-128.96 7.47 -119.72 7.47 -110.2 7.47 C-110.2 7.14 -110.2 6.81 -110.2 6.47 C-119.44 6.47 -128.68 6.47 -138.2 6.47 Z M106.8 29.47 C105.84 29.73 104.88 29.99 103.89 30.26 C92.63 33.64 80.6 38.94 70.8 45.47 C67.27 45.15 65.23 43.43 62.55 41.22 C40.59 23.83 8.94 20.86 -18.18 23.97 C-35.87 26.43 -63.17 32.44 -76.2 45.47 C-78.04 41.78 -77.67 37.4 -77.92 33.34 C-77.88 30.57 -77.88 30.57 -79.2 29.47 C-80.56 29.37 -81.92 29.34 -83.29 29.33 C-84.17 29.33 -85.05 29.32 -85.96 29.32 C-87.42 29.32 -87.42 29.32 -88.92 29.32 C-89.94 29.32 -90.96 29.31 -92.01 29.31 C-95.4 29.3 -98.8 29.3 -102.19 29.3 C-104.54 29.3 -106.89 29.29 -109.24 29.29 C-114.17 29.28 -119.09 29.28 -124.02 29.28 C-130.35 29.28 -136.68 29.27 -143.01 29.25 C-147.86 29.24 -152.72 29.24 -157.57 29.24 C-159.9 29.24 -162.24 29.23 -164.57 29.22 C-167.83 29.21 -171.09 29.22 -174.35 29.22 C-175.32 29.22 -176.29 29.21 -177.3 29.21 C-178.18 29.21 -179.06 29.21 -179.98 29.22 C-181.13 29.22 -181.13 29.22 -182.31 29.22 C-184.44 29.3 -184.44 29.3 -186.2 31.47 C-186.51 33.72 -186.51 33.72 -186.47 36.34 C-186.48 37.36 -186.49 38.37 -186.5 39.42 C-186.5 40.52 -186.5 41.62 -186.5 42.75 C-186.5 43.87 -186.51 45 -186.51 46.16 C-186.52 48.54 -186.52 50.92 -186.51 53.3 C-186.51 56.95 -186.53 60.61 -186.56 64.26 C-186.56 66.57 -186.56 68.88 -186.56 71.19 C-186.57 72.28 -186.58 73.38 -186.59 74.52 C-186.58 75.53 -186.58 76.54 -186.57 77.59 C-186.57 78.49 -186.57 79.38 -186.57 80.3 C-186.45 81.02 -186.32 81.73 -186.2 82.47 C-183.34 84.37 -182.12 84.79 -178.88 85.34 C-171.61 86.91 -167.47 90.5 -163.49 96.65 C-160.95 102.2 -161.35 108.11 -161.39 114.1 C-161.38 115.55 -161.37 117 -161.35 118.45 C-161.31 122.35 -161.31 126.25 -161.32 130.15 C-161.32 134.27 -161.29 138.39 -161.26 142.51 C-161.22 150.09 -161.2 157.67 -161.2 165.25 C-161.2 170.5 -161.19 175.76 -161.16 181.02 C-161.16 181.69 -161.15 182.36 -161.15 183.06 C-161.15 183.72 -161.14 184.38 -161.14 185.07 C-161.06 200.5 -161.08 215.93 -161.17 231.37 C-161.19 234.19 -161.2 237.02 -161.22 239.85 C-161.25 248.91 -161.31 257.97 -161.41 267.04 C-161.43 269.92 -161.45 272.81 -161.47 275.69 C-161.48 279.69 -161.53 283.69 -161.59 287.68 C-161.59 288.86 -161.59 290.04 -161.59 291.26 C-161.72 298.53 -162.46 304.68 -167.75 310.04 C-171.93 313.64 -176.48 314.34 -181.84 315.01 C-184.38 315.27 -184.38 315.27 -186.2 317.47 C-186.5 319.68 -186.5 319.68 -186.44 322.27 C-186.44 323.27 -186.45 324.26 -186.45 325.29 C-186.44 326.37 -186.43 327.45 -186.43 328.56 C-186.43 329.67 -186.43 330.77 -186.43 331.91 C-186.42 334.25 -186.41 336.59 -186.4 338.92 C-186.38 342.52 -186.38 346.11 -186.38 349.7 C-186.38 351.97 -186.37 354.24 -186.36 356.5 C-186.36 357.58 -186.36 358.67 -186.36 359.78 C-186.35 360.78 -186.35 361.77 -186.34 362.79 C-186.34 363.67 -186.33 364.55 -186.33 365.46 C-186.42 367.46 -186.42 367.46 -185.2 368.47 C-183.46 368.56 -181.73 368.59 -179.99 368.59 C-178.86 368.59 -177.73 368.59 -176.57 368.59 C-175.32 368.59 -174.07 368.58 -172.78 368.58 C-171.48 368.58 -170.17 368.58 -168.82 368.58 C-165.23 368.58 -161.63 368.57 -158.04 368.57 C-154.28 368.56 -150.53 368.56 -146.78 368.56 C-139.67 368.56 -132.55 368.55 -125.44 368.54 C-117.35 368.53 -109.25 368.52 -101.16 368.52 C-84.51 368.51 -67.85 368.49 -51.2 368.47 C-51.2 351.64 -51.2 334.81 -51.2 317.47 C-55.82 315.16 -60.44 312.85 -65.2 310.47 C-68.97 304.81 -69.78 302.69 -69.7 296.42 C-69.71 295.63 -69.72 294.83 -69.72 294.02 C-69.74 291.37 -69.73 288.72 -69.71 286.07 C-69.72 284.17 -69.73 282.27 -69.74 280.36 C-69.75 275.2 -69.75 270.04 -69.73 264.88 C-69.72 259.48 -69.73 254.08 -69.74 248.67 C-69.75 239.6 -69.74 230.53 -69.72 221.46 C-69.7 210.97 -69.7 200.48 -69.73 190 C-69.74 180.99 -69.75 171.99 -69.74 162.98 C-69.73 157.6 -69.73 152.22 -69.74 146.85 C-69.75 141.79 -69.75 136.73 -69.72 131.68 C-69.72 129.82 -69.72 127.97 -69.73 126.11 C-69.74 123.58 -69.72 121.05 -69.7 118.51 C-69.71 117.78 -69.72 117.05 -69.73 116.29 C-69.65 111.22 -68.34 108.39 -65.2 104.47 C-56.68 96.41 -45.1 95.65 -33.91 95.39 C-25.57 95.78 -16.74 97.59 -10.92 103.95 C-5.07 112.22 -5.07 112.22 -5.08 117.65 C-5.07 118.53 -5.07 119.41 -5.07 120.32 C-5.08 121.78 -5.08 121.78 -5.08 123.27 C-5.08 124.3 -5.08 125.33 -5.08 126.39 C-5.08 129.86 -5.09 133.34 -5.1 136.81 C-5.1 139.29 -5.1 141.77 -5.1 144.25 C-5.11 149.61 -5.11 154.96 -5.12 160.32 C-5.13 168.06 -5.14 175.8 -5.14 183.54 C-5.15 196.11 -5.16 208.67 -5.18 221.23 C-5.18 222.36 -5.18 222.36 -5.18 223.51 C-5.18 228.85 -5.19 234.19 -5.2 239.53 C-5.2 245.63 -5.21 251.73 -5.22 257.83 C-5.22 258.59 -5.22 259.34 -5.22 260.11 C-5.23 272.63 -5.24 285.14 -5.25 297.66 C-5.25 305.38 -5.26 313.11 -5.28 320.84 C-5.28 326.75 -5.29 332.66 -5.29 338.58 C-5.29 341.01 -5.3 343.44 -5.3 345.88 C-5.31 349.18 -5.31 352.49 -5.31 355.79 C-5.32 357.26 -5.32 357.26 -5.32 358.75 C-5.32 359.63 -5.32 360.51 -5.32 361.41 C-5.32 362.18 -5.32 362.94 -5.32 363.73 C-5.39 365.5 -5.39 365.5 -4.2 366.47 C-2.75 366.56 -1.31 366.59 0.14 366.59 C1.07 366.59 2.01 366.59 2.97 366.59 C4.01 366.59 5.04 366.58 6.11 366.58 C7.19 366.58 8.27 366.58 9.39 366.58 C12.99 366.58 16.58 366.57 20.18 366.56 C22.67 366.56 25.16 366.56 27.64 366.56 C33.53 366.56 39.42 366.55 45.31 366.54 C52.67 366.53 60.03 366.52 67.4 366.52 C80.53 366.5 93.67 366.49 106.8 366.47 C106.83 359.38 106.85 352.3 106.86 345.21 C106.86 342.8 106.87 340.39 106.88 337.98 C106.89 334.52 106.9 331.06 106.9 327.6 C106.91 326.52 106.91 325.43 106.92 324.32 C106.92 323.32 106.92 322.31 106.92 321.28 C106.92 320.4 106.92 319.52 106.92 318.61 C106.94 316.41 106.94 316.41 105.8 314.47 C103.88 313.93 103.88 313.93 101.62 313.59 C97.19 312.65 94.2 311.63 90.8 308.47 C85.42 299.87 86.23 289.83 86.27 280.09 C86.26 278.24 86.25 276.39 86.24 274.54 C86.22 269.53 86.22 264.52 86.23 259.52 C86.24 255.33 86.23 251.15 86.22 246.96 C86.21 237.09 86.21 227.22 86.23 217.35 C86.24 207.17 86.23 196.99 86.2 186.82 C86.17 178.07 86.16 169.32 86.17 160.57 C86.18 155.34 86.17 150.12 86.15 144.9 C86.13 140 86.14 135.09 86.16 130.19 C86.17 128.39 86.17 126.59 86.15 124.79 C86.14 122.33 86.15 119.87 86.18 117.42 C86.16 116.71 86.15 116 86.14 115.27 C86.24 109.81 88.11 106.33 91.8 102.47 C94.96 100.51 94.96 100.51 98.3 99.09 C99.41 98.61 100.51 98.13 101.65 97.63 C112.65 93.57 128.96 93.33 139.71 98.13 C143.19 100.35 145.57 103.02 147.8 106.47 C148.32 107.12 148.83 107.77 149.36 108.45 C151.46 112.85 151.2 116.85 151.16 121.67 C151.16 122.7 151.16 123.74 151.16 124.81 C151.17 128.29 151.15 131.76 151.13 135.24 C151.13 137.73 151.12 140.23 151.12 142.72 C151.12 148.09 151.11 153.45 151.09 158.82 C151.06 166.58 151.05 174.34 151.04 182.1 C151.03 194.7 151.01 207.29 150.97 219.88 C150.94 232.11 150.91 244.34 150.89 256.57 C150.89 257.7 150.89 257.7 150.89 258.86 C150.87 267.08 150.86 275.3 150.85 283.53 C150.85 284.25 150.85 284.97 150.85 285.72 C150.84 288.6 150.84 291.49 150.83 294.37 C150.82 302.83 150.81 311.29 150.78 319.75 C150.77 325.67 150.76 331.6 150.75 337.53 C150.74 339.96 150.73 342.4 150.72 344.84 C150.71 348.15 150.71 351.46 150.7 354.78 C150.7 355.75 150.69 356.73 150.69 357.74 C150.69 358.62 150.69 359.5 150.69 360.41 C150.69 361.17 150.68 361.94 150.68 362.73 C150.61 364.5 150.61 364.5 151.8 365.47 C153.25 365.56 154.69 365.59 156.14 365.59 C157.07 365.59 158.01 365.59 158.97 365.59 C160.01 365.59 161.04 365.58 162.11 365.58 C163.19 365.58 164.27 365.58 165.39 365.58 C168.99 365.58 172.58 365.57 176.18 365.56 C178.67 365.56 181.16 365.56 183.64 365.56 C189.53 365.56 195.42 365.55 201.31 365.54 C208.67 365.53 216.03 365.52 223.4 365.52 C236.53 365.5 249.67 365.49 262.8 365.47 C262.83 358.38 262.85 351.3 262.86 344.21 C262.86 341.8 262.87 339.39 262.88 336.98 C262.89 333.52 262.9 330.06 262.9 326.6 C262.91 325.52 262.91 324.43 262.92 323.32 C262.92 322.32 262.92 321.31 262.92 320.28 C262.92 319.4 262.92 318.52 262.92 317.61 C262.94 315.41 262.94 315.41 261.8 313.47 C260.61 313.36 259.41 313.26 258.18 313.15 C253.36 312.64 250.17 310.95 246.8 307.47 C242.46 300.84 241.66 294.78 241.68 286.96 C241.68 286.1 241.68 285.23 241.67 284.34 C241.67 281.43 241.67 278.52 241.68 275.61 C241.68 273.52 241.67 271.44 241.67 269.35 C241.67 264.86 241.67 260.36 241.67 255.87 C241.66 248.75 241.65 241.64 241.64 234.52 C241.63 233.32 241.63 232.12 241.63 230.88 C241.62 228.42 241.62 225.97 241.61 223.51 C241.58 206.94 241.55 190.38 241.55 173.81 C241.55 162.64 241.54 151.46 241.5 140.29 C241.48 134.38 241.47 128.47 241.49 122.56 C241.5 116.99 241.49 111.43 241.46 105.86 C241.45 103.83 241.45 101.79 241.46 99.76 C241.57 78.15 236.2 62.82 221.07 46.71 C201.51 27.35 171.94 22.48 145.34 22.39 C132.29 22.78 119.31 25.93 106.8 29.47 Z M-184.2 178.47 C-184.2 185.73 -184.2 192.99 -184.2 200.47 C-183.87 200.47 -183.54 200.47 -183.2 200.47 C-183.2 193.21 -183.2 185.95 -183.2 178.47 C-183.53 178.47 -183.86 178.47 -184.2 178.47 Z M-183.2 253.47 C-183.2 258.09 -183.2 262.71 -183.2 267.47 C-182.87 267.47 -182.54 267.47 -182.2 267.47 C-182.2 262.85 -182.2 258.23 -182.2 253.47 C-182.53 253.47 -182.86 253.47 -183.2 253.47 Z M-183.2 279.47 C-182.2 281.47 -182.2 281.47 -182.2 281.47 Z M-206.2 294.47 C-206.2 294.8 -206.2 295.13 -206.2 295.47 C-203.89 295.47 -201.58 295.47 -199.2 295.47 C-199.2 295.14 -199.2 294.81 -199.2 294.47 C-201.51 294.47 -203.82 294.47 -206.2 294.47 Z " fill="#FAFCFC" transform="translate(874.196533203125,720.533447265625)"/>
<path d="M0 0 C2.96 0.01 5.91 -0.02 8.87 -0.05 C23.75 -0.11 37.11 1.93 51.04 7.32 C51.69 7.57 52.34 7.82 53.01 8.07 C58.23 10.11 63.13 12.63 67.98 15.44 C74.66 17.88 81.33 14.21 87.54 11.7 C94.42 8.99 101.28 6.53 108.41 4.57 C109.45 4.29 109.45 4.29 110.51 3.99 C119.52 1.61 128.13 0.13 137.47 0.07 C138.47 0.07 139.47 0.06 140.5 0.05 C142.61 0.03 144.72 0.02 146.84 0.02 C149.99 0.01 153.15 -0.04 156.31 -0.09 C176.41 -0.25 194.6 3.74 212.73 12.45 C213.84 12.97 213.84 12.97 214.98 13.51 C231.17 21.32 242.92 32.37 252.73 47.45 C253.26 48.22 253.78 48.99 254.33 49.79 C263.54 63.99 265.61 77.28 265.45 93.85 C265.46 95.84 265.46 97.84 265.47 99.84 C265.48 104.11 265.48 108.37 265.45 112.64 C265.42 119.4 265.43 126.15 265.45 132.91 C265.47 143.59 265.46 154.27 265.43 164.95 C265.4 184.09 265.39 203.23 265.42 222.37 C265.43 229.08 265.42 235.79 265.4 242.5 C265.39 246.67 265.39 250.84 265.39 255.01 C265.39 256.94 265.38 258.87 265.37 260.8 C265.36 263.45 265.36 266.09 265.37 268.73 C265.36 269.48 265.35 270.24 265.34 271.02 C265.39 276.97 266.24 283.46 270.16 288.16 C272.5 290.08 274.76 290.13 277.73 290.51 C281.59 291 283.44 291.26 286.73 293.45 C286.73 324.47 286.73 355.49 286.73 387.45 C124.04 387.45 -38.65 387.45 -206.27 387.45 C-207.91 384.18 -207.42 380.58 -207.42 376.99 C-207.42 376.11 -207.42 375.24 -207.43 374.34 C-207.44 371.44 -207.44 368.53 -207.44 365.63 C-207.44 363.62 -207.45 361.61 -207.45 359.6 C-207.46 355.39 -207.46 351.17 -207.46 346.95 C-207.46 341.54 -207.47 336.12 -207.49 330.71 C-207.5 326.56 -207.5 322.41 -207.5 318.25 C-207.5 316.26 -207.51 314.26 -207.51 312.26 C-207.52 309.48 -207.52 306.69 -207.52 303.9 C-207.52 303.07 -207.53 302.24 -207.53 301.38 C-207.5 295.67 -207.5 295.67 -205.27 293.45 C-203.02 293.03 -200.74 292.71 -198.46 292.45 C-192.14 291.73 -192.14 291.73 -186.27 289.45 C-182.53 282.34 -182.9 273.75 -183.1 265.94 C-183.13 264.14 -183.13 264.14 -183.15 262.31 C-183.2 259.04 -183.27 255.77 -183.34 252.5 C-183.41 249.03 -183.47 245.56 -183.52 242.09 C-183.62 236.24 -183.73 230.39 -183.85 224.53 C-184.01 216.42 -184.15 208.3 -184.29 200.19 C-184.52 186.95 -184.78 173.71 -185.06 160.48 C-185.2 153.66 -185.31 146.84 -185.37 140.02 C-185.41 136.47 -185.46 132.92 -185.51 129.37 C-185.53 127.81 -185.54 126.25 -185.54 124.7 C-185.54 122.63 -185.57 120.57 -185.61 118.51 C-185.62 116.84 -185.62 116.84 -185.63 115.13 C-186.03 112.25 -186.03 112.25 -188.58 110.61 C-192.01 109.13 -195.35 108.72 -199.02 108.38 C-201.47 108.15 -203.84 107.85 -206.27 107.45 C-207.98 104.03 -207.42 100.11 -207.42 96.35 C-207.42 95.4 -207.42 94.46 -207.43 93.49 C-207.44 90.36 -207.44 87.23 -207.44 84.1 C-207.44 81.94 -207.45 79.77 -207.45 77.6 C-207.46 73.05 -207.46 68.51 -207.46 63.96 C-207.46 58.12 -207.47 52.29 -207.49 46.45 C-207.5 41.97 -207.5 37.5 -207.5 33.02 C-207.5 30.87 -207.51 28.71 -207.51 26.56 C-207.52 23.56 -207.52 20.55 -207.52 17.55 C-207.52 16.65 -207.53 15.75 -207.53 14.83 C-207.5 8.67 -207.5 8.67 -205.27 6.45 C-193.56 4.32 -180.88 5.22 -169.02 5.13 C-166.75 5.11 -164.48 5.09 -162.21 5.07 C-157.47 5.02 -152.72 4.98 -147.97 4.94 C-141.97 4.89 -135.97 4.84 -129.97 4.79 C-115.74 4.65 -101.5 4.54 -87.27 4.45 C-86.42 4.44 -85.57 4.43 -84.69 4.43 C-79.81 4.4 -74.93 4.37 -70.06 4.36 C-68.94 4.35 -67.83 4.34 -66.68 4.34 C-65.7 4.33 -64.72 4.33 -63.71 4.33 C-62.89 4.33 -62.07 4.33 -61.22 4.33 C-59.27 4.45 -59.27 4.45 -57.27 5.45 C-57.27 7.1 -57.27 8.75 -57.27 10.45 C-50.96 9.76 -45.43 7.92 -39.47 5.79 C-37.08 4.96 -34.69 4.19 -32.27 3.45 C-31.38 3.17 -30.49 2.89 -29.57 2.6 C-19.79 -0.08 -10.06 -0.04 0 0 Z M-87.27 5.45 C-87.27 5.78 -87.27 6.11 -87.27 6.45 C-81.33 6.45 -75.39 6.45 -69.27 6.45 C-69.27 6.12 -69.27 5.79 -69.27 5.45 C-75.21 5.45 -81.15 5.45 -87.27 5.45 Z M-192.27 6.45 C-192.27 6.78 -192.27 7.11 -192.27 7.45 C-174.45 7.45 -156.63 7.45 -138.27 7.45 C-138.27 7.12 -138.27 6.79 -138.27 6.45 C-156.09 6.45 -173.91 6.45 -192.27 6.45 Z M-70.26 41.81 C-73.27 43.45 -73.27 43.45 -76.27 44.45 C-76.33 43.37 -76.39 42.3 -76.46 41.2 C-76.54 39.8 -76.63 38.41 -76.71 37.01 C-76.75 36.3 -76.79 35.59 -76.83 34.87 C-76.75 31.36 -76.75 31.36 -78.27 28.45 C-79.63 28.35 -81 28.32 -82.37 28.31 C-83.25 28.31 -84.13 28.3 -85.04 28.3 C-86.5 28.3 -86.5 28.3 -87.99 28.3 C-89.01 28.3 -90.04 28.29 -91.09 28.29 C-94.48 28.28 -97.88 28.28 -101.27 28.28 C-103.62 28.27 -105.96 28.27 -108.31 28.27 C-113.24 28.26 -118.17 28.26 -123.1 28.26 C-129.43 28.26 -135.76 28.25 -142.09 28.23 C-146.94 28.22 -151.79 28.22 -156.64 28.22 C-158.98 28.22 -161.31 28.21 -163.65 28.2 C-166.91 28.19 -170.16 28.2 -173.42 28.2 C-174.4 28.2 -175.37 28.19 -176.37 28.19 C-177.26 28.19 -178.14 28.19 -179.05 28.2 C-180.21 28.2 -180.21 28.2 -181.39 28.2 C-183.52 28.28 -183.52 28.28 -185.27 30.45 C-185.57 32.75 -185.57 32.75 -185.5 35.45 C-185.5 36.49 -185.5 37.53 -185.5 38.6 C-185.49 39.73 -185.48 40.86 -185.47 42.02 C-185.47 43.17 -185.46 44.32 -185.46 45.51 C-185.45 49.19 -185.42 52.88 -185.4 56.57 C-185.39 59.07 -185.38 61.56 -185.37 64.06 C-185.35 70.19 -185.32 76.32 -185.27 82.45 C-184.67 82.65 -184.06 82.85 -183.43 83.06 C-182.63 83.33 -181.83 83.59 -181 83.87 C-180.21 84.13 -179.42 84.4 -178.6 84.67 C-170.85 87.26 -166.46 90.22 -162.21 97.18 C-161.02 100.06 -160.99 102.39 -160.95 105.51 C-160.93 106.75 -160.91 107.99 -160.89 109.27 C-160.88 110.64 -160.87 112 -160.86 113.37 C-160.84 114.81 -160.82 116.24 -160.8 117.68 C-160.75 121.56 -160.71 125.44 -160.67 129.32 C-160.65 131.77 -160.62 134.21 -160.59 136.65 C-160.23 167.88 -160.07 199.11 -160.25 230.34 C-160.27 233.17 -160.28 236 -160.29 238.84 C-160.33 247.9 -160.39 256.96 -160.48 266.02 C-160.51 268.9 -160.53 271.79 -160.54 274.67 C-160.56 278.67 -160.61 282.66 -160.66 286.66 C-160.66 287.84 -160.67 289.02 -160.67 290.24 C-160.82 298.58 -162.18 303.88 -167.77 310.32 C-171.55 313.23 -176.05 313.47 -180.66 313.99 C-183.43 314.22 -183.43 314.22 -185.27 316.45 C-185.57 318.7 -185.57 318.7 -185.52 321.34 C-185.52 322.36 -185.52 323.37 -185.53 324.42 C-185.52 325.52 -185.51 326.63 -185.5 327.76 C-185.5 328.89 -185.5 330.02 -185.5 331.18 C-185.5 333.56 -185.49 335.95 -185.48 338.33 C-185.46 342 -185.46 345.66 -185.46 349.33 C-185.45 351.64 -185.45 353.95 -185.44 356.26 C-185.44 357.37 -185.44 358.47 -185.44 359.61 C-185.43 360.62 -185.42 361.64 -185.42 362.68 C-185.41 364.03 -185.41 364.03 -185.41 365.4 C-185.5 367.44 -185.5 367.44 -184.27 368.45 C-182.54 368.54 -180.8 368.57 -179.07 368.57 C-177.94 368.57 -176.81 368.57 -175.64 368.57 C-174.4 368.57 -173.15 368.56 -171.86 368.56 C-170.55 368.56 -169.24 368.56 -167.9 368.56 C-164.3 368.56 -160.71 368.55 -157.11 368.55 C-153.36 368.54 -149.61 368.54 -145.85 368.54 C-138.74 368.54 -131.63 368.53 -124.52 368.52 C-116.43 368.51 -108.33 368.5 -100.24 368.5 C-83.58 368.49 -66.93 368.47 -50.27 368.45 C-50.27 351.62 -50.27 334.79 -50.27 317.45 C-54.23 315.47 -58.19 313.49 -62.27 311.45 C-67.98 306.03 -69.12 302.79 -69.4 294.87 C-69.41 293.52 -69.41 292.17 -69.41 290.82 C-69.41 290.08 -69.41 289.33 -69.41 288.56 C-69.42 286.07 -69.42 283.57 -69.42 281.08 C-69.42 279.28 -69.42 277.49 -69.43 275.7 C-69.44 270.84 -69.44 265.98 -69.44 261.12 C-69.44 258.08 -69.44 255.04 -69.45 252 C-69.45 241.4 -69.46 230.79 -69.46 220.19 C-69.46 210.31 -69.47 200.43 -69.48 190.55 C-69.5 182.07 -69.5 173.58 -69.5 165.09 C-69.5 160.03 -69.5 154.96 -69.51 149.89 C-69.52 145.13 -69.52 140.36 -69.52 135.6 C-69.52 133.85 -69.52 132.11 -69.52 130.36 C-69.53 127.97 -69.53 125.58 -69.52 123.19 C-69.53 122.51 -69.53 121.82 -69.54 121.11 C-69.49 114.04 -67.96 107.83 -63.27 102.45 C-53.83 95.74 -40.61 94.3 -29.27 95.45 C-19.43 97.16 -12.57 99.9 -6.57 108.09 C-4.26 112.29 -4.45 116.39 -4.52 121.08 C-4.51 122.13 -4.5 123.18 -4.49 124.26 C-4.47 127.75 -4.49 131.25 -4.52 134.75 C-4.51 137.26 -4.5 139.77 -4.49 142.28 C-4.47 147.68 -4.47 153.08 -4.48 158.49 C-4.51 166.3 -4.49 174.11 -4.47 181.92 C-4.44 194.59 -4.44 207.27 -4.45 219.94 C-4.46 232.25 -4.46 244.56 -4.45 256.86 C-4.44 258 -4.44 258 -4.44 259.16 C-4.43 266.71 -4.42 274.25 -4.41 281.79 C-4.41 284.72 -4.41 287.65 -4.4 290.58 C-4.4 292.03 -4.4 293.48 -4.4 294.92 C-4.38 304.13 -4.38 313.34 -4.38 322.55 C-4.39 327.81 -4.38 333.08 -4.38 338.35 C-4.38 340.8 -4.38 343.25 -4.39 345.7 C-4.39 349.04 -4.39 352.37 -4.39 355.7 C-4.39 356.68 -4.4 357.67 -4.4 358.68 C-4.4 359.57 -4.4 360.45 -4.39 361.36 C-4.4 362.13 -4.4 362.9 -4.4 363.7 C-4.46 365.47 -4.46 365.47 -3.27 366.45 C-1.83 366.54 -0.38 366.57 1.06 366.57 C2 366.57 2.93 366.57 3.9 366.57 C4.93 366.57 5.96 366.56 7.03 366.56 C8.11 366.56 9.2 366.56 10.31 366.56 C13.91 366.56 17.51 366.55 21.11 366.54 C23.59 366.54 26.08 366.54 28.57 366.54 C34.46 366.54 40.35 366.53 46.24 366.52 C54.77 366.5 63.31 366.5 71.84 366.49 C83.81 366.48 95.77 366.46 107.73 366.45 C107.4 349.62 107.07 332.79 106.73 315.45 C103.43 314.13 100.13 312.81 96.73 311.45 C91.28 307.88 89.41 304.51 87.73 298.45 C87.46 295.67 87.31 293.13 87.33 290.36 C87.33 289.59 87.32 288.82 87.31 288.02 C87.3 285.45 87.3 282.88 87.31 280.32 C87.3 278.46 87.29 276.61 87.28 274.76 C87.26 269.75 87.26 264.74 87.26 259.73 C87.26 255.55 87.25 251.36 87.24 247.17 C87.22 237.29 87.22 227.41 87.23 217.53 C87.23 207.35 87.21 197.16 87.17 186.98 C87.14 178.23 87.13 169.47 87.13 160.72 C87.14 155.5 87.13 150.27 87.11 145.05 C87.08 140.14 87.09 135.23 87.11 130.31 C87.11 128.51 87.1 126.72 87.09 124.92 C86.97 108.54 86.97 108.54 91.28 102.76 C94.06 100.23 97.18 99.1 100.73 98.01 C101.78 97.65 101.78 97.65 102.84 97.28 C114.35 93.38 127.39 92.48 138.73 97.45 C143.94 100.3 148.04 104.07 150.73 109.45 C150.82 110.85 150.86 112.26 150.86 113.67 C150.87 114.56 150.87 115.46 150.88 116.37 C150.88 117.36 150.88 118.35 150.88 119.36 C150.88 120.92 150.88 120.92 150.89 122.52 C150.9 126.03 150.91 129.55 150.92 133.07 C150.92 135.58 150.93 138.09 150.94 140.6 C150.96 146.02 150.97 151.43 150.99 156.85 C151.01 164.69 151.03 172.52 151.06 180.36 C151.1 193.07 151.14 205.78 151.17 218.49 C151.18 219.25 151.18 220.01 151.18 220.8 C151.2 226.97 151.22 233.15 151.23 239.33 C151.25 244.73 151.26 250.13 151.28 255.53 C151.28 256.29 151.28 257.05 151.29 257.84 C151.32 270.5 151.36 283.17 151.4 295.83 C151.43 303.65 151.45 311.47 151.47 319.29 C151.49 325.27 151.5 331.25 151.53 337.24 C151.53 339.7 151.54 342.16 151.54 344.62 C151.55 347.97 151.56 351.31 151.58 354.66 C151.58 355.65 151.58 356.63 151.58 357.65 C151.58 358.54 151.59 359.43 151.59 360.35 C151.59 361.51 151.59 361.51 151.6 362.69 C151.54 364.47 151.54 364.47 152.73 365.45 C154.16 365.54 155.59 365.57 157.02 365.57 C157.95 365.57 158.88 365.57 159.83 365.57 C160.86 365.57 161.88 365.56 162.94 365.56 C164.01 365.56 165.08 365.56 166.19 365.56 C169.76 365.56 173.32 365.55 176.89 365.54 C179.35 365.54 181.82 365.54 184.28 365.54 C190.78 365.54 197.29 365.53 203.79 365.51 C211.58 365.5 219.37 365.5 227.17 365.49 C239.02 365.48 250.87 365.46 262.73 365.45 C262.73 348.62 262.73 331.79 262.73 314.45 C259.76 313.46 256.79 312.47 253.73 311.45 C248.12 308.59 245.9 305.16 243.73 299.45 C242.54 295.29 242.59 291.24 242.6 286.94 C242.6 286.07 242.6 285.21 242.6 284.32 C242.59 281.41 242.6 278.5 242.6 275.59 C242.6 273.5 242.6 271.42 242.6 269.33 C242.59 264.84 242.59 260.34 242.59 255.85 C242.59 248.73 242.57 241.62 242.56 234.5 C242.56 233.3 242.55 232.1 242.55 230.86 C242.55 228.4 242.54 225.95 242.54 223.49 C242.5 206.92 242.47 190.36 242.48 173.79 C242.48 162.61 242.46 151.44 242.43 140.27 C242.41 134.36 242.4 128.45 242.41 122.54 C242.42 116.97 242.41 111.41 242.38 105.84 C242.37 103.81 242.38 101.77 242.39 99.74 C242.46 84.49 241 71.01 231.66 58.32 C231.24 57.72 230.82 57.11 230.39 56.49 C229.2 54.78 227.97 53.11 226.73 51.45 C225.76 50.15 225.76 50.15 224.78 48.82 C206.44 27.62 176.97 24.06 150.75 22.16 C123.81 21.45 95.64 30.24 72.99 44.61 C70.73 45.45 70.73 45.45 68.18 44.83 C65.59 43.37 63.82 41.81 61.73 39.7 C46.68 26.1 19.62 21.77 -0.1 22.26 C-25.23 23.72 -48.22 29.47 -70.26 41.81 Z M-184.27 115.45 C-184.27 126.67 -184.27 137.89 -184.27 149.45 C-183.94 149.45 -183.61 149.45 -183.27 149.45 C-183.27 138.23 -183.27 127.01 -183.27 115.45 C-183.6 115.45 -183.93 115.45 -184.27 115.45 Z M-183.27 200.45 C-183.27 206.72 -183.27 212.99 -183.27 219.45 C-182.94 219.45 -182.61 219.45 -182.27 219.45 C-182.27 213.18 -182.27 206.91 -182.27 200.45 C-182.6 200.45 -182.93 200.45 -183.27 200.45 Z M-182.27 253.45 C-182.27 258.07 -182.27 262.69 -182.27 267.45 C-181.94 267.45 -181.61 267.45 -181.27 267.45 C-181.27 262.83 -181.27 258.21 -181.27 253.45 C-181.6 253.45 -181.93 253.45 -182.27 253.45 Z M-182.27 278.45 C-181.27 280.45 -181.27 280.45 -181.27 280.45 Z " fill="#FAFCFC" transform="translate(321.27294921875,722.553955078125)"/>
<path d="M0 0 C1.39 1.15 2.77 2.32 4.12 3.5 C5.3 4.51 5.3 4.51 6.5 5.55 C16.37 14.25 25.6 23.57 33.96 33.73 C34.57 34.46 35.18 35.19 35.81 35.94 C36.35 36.6 36.89 37.25 37.45 37.93 C39.33 39.69 40.61 40.11 43.12 40.5 C44.94 38.54 46.75 36.58 48.56 34.62 C49.11 34.03 49.66 33.44 50.22 32.83 C53.43 29.35 56.61 25.85 59.75 22.31 C80.75 -0.98 108.83 -20.26 141.03 -22.72 C144.04 -22.84 147.05 -22.88 150.06 -22.88 C151.14 -22.87 152.22 -22.87 153.34 -22.87 C166.22 -22.68 179.24 -20.78 191.06 -15.42 C193.12 -14.5 195.15 -13.88 197.31 -13.25 C221.99 -5.14 244.38 15.78 256.27 38.52 C260.95 47.86 264.47 57.41 267.12 67.5 C267.6 69.22 267.6 69.22 268.09 70.97 C277.81 112.33 263.36 154.28 241.83 189.33 C240 192.12 238.11 194.82 236.12 197.5 C235.46 198.43 234.79 199.35 234.1 200.31 C221.28 217.77 207.01 233.65 191.75 249 C191.11 249.65 190.47 250.29 189.81 250.96 C185.41 255.34 180.84 259.46 176.12 263.5 C175.25 264.26 175.25 264.26 174.36 265.03 C73.59 352.24 73.59 352.24 39.38 351.87 C33.98 351.26 30.05 348.84 25.5 346 C24.53 345.42 23.56 344.85 22.56 344.25 C19.4 342.36 16.26 340.43 13.12 338.5 C10.88 337.14 8.63 335.78 6.38 334.43 C-5.21 327.39 -16.73 320.23 -27.88 312.5 C-28.9 311.79 -28.9 311.79 -29.95 311.06 C-51.69 295.94 -72.86 279.95 -92.21 261.82 C-94.98 259.23 -97.79 256.7 -100.66 254.23 C-105.46 250.05 -109.95 245.57 -114.44 241.06 C-115.25 240.25 -116.06 239.45 -116.9 238.62 C-121.76 233.74 -126.39 228.73 -130.88 223.5 C-132.19 222.04 -133.5 220.58 -134.81 219.12 C-149.97 202.07 -162.01 182.95 -171.94 162.44 C-172.39 161.51 -172.84 160.58 -173.31 159.63 C-175.9 154.15 -177.79 148.78 -179.25 142.9 C-179.82 140.72 -180.52 138.71 -181.38 136.62 C-192.15 109.01 -188.86 75.09 -177.2 48.4 C-171.06 35.09 -163.23 23.83 -152.88 13.5 C-152.14 12.7 -151.4 11.91 -150.64 11.09 C-112.14 -29.8 -44.03 -33.35 0 0 Z M-78.88 -21.5 C-78.88 -21.17 -78.88 -20.84 -78.88 -20.5 C-75.57 -20.5 -72.27 -20.5 -68.88 -20.5 C-68.88 -20.83 -68.88 -21.16 -68.88 -21.5 C-72.18 -21.5 -75.48 -21.5 -78.88 -21.5 Z M-66.88 -21.5 C-66.88 -21.17 -66.88 -20.84 -66.88 -20.5 C-63.58 -20.5 -60.27 -20.5 -56.88 -20.5 C-56.88 -20.83 -56.88 -21.16 -56.88 -21.5 C-60.17 -21.5 -63.48 -21.5 -66.88 -21.5 Z M138.12 -21.5 C142.12 -20.5 142.12 -20.5 142.12 -20.5 Z M159.12 -21.5 C163.12 -20.5 163.12 -20.5 163.12 -20.5 Z M-137.88 18.5 C-138.55 19.03 -139.22 19.55 -139.91 20.1 C-158.58 35.18 -169.62 60.9 -172.65 84.19 C-173.84 96.52 -173.6 109.4 -170.88 121.5 C-170.72 122.19 -170.57 122.87 -170.42 123.58 C-160.06 169.66 -130.22 205.9 -97.81 238.75 C-97.26 239.31 -96.72 239.87 -96.15 240.45 C-93.75 242.86 -92.15 244.41 -88.88 245.5 C-88.7 244.2 -88.53 242.89 -88.36 241.55 C-85.16 218.01 -77.95 198.49 -58.75 183.44 C-44.67 172.82 -29.04 165.36 -12.88 158.5 C-12.5 152.5 -12.17 146.5 -11.88 140.5 C-11.82 139.4 -11.76 138.3 -11.7 137.16 C-11.51 130.2 -12.72 123.93 -14.21 117.15 C-15.11 112.22 -15.15 107.49 -14.88 102.5 C-9.54 102.76 -7.29 104.67 -3.55 108.13 C-1.43 109.86 0.41 110.34 3.12 110.5 C3.33 109.86 3.53 109.22 3.75 108.57 C4.02 107.74 4.28 106.91 4.56 106.06 C4.83 105.24 5.1 104.42 5.37 103.57 C6.12 101.5 6.12 101.5 7.12 100.5 C7.52 101.61 7.91 102.73 8.31 103.88 C9.46 106.53 9.81 107.32 12.38 108.81 C13.28 109.04 14.19 109.27 15.12 109.5 C21.95 111.38 21.95 111.38 25.12 113.5 C27.42 114.28 29.74 114.95 32.07 115.62 C34.12 116.5 34.12 116.5 36.12 119.5 C36.69 127.05 34.91 132.01 30.06 137.75 C25.74 142.91 25.01 144.58 25.56 151.38 C26.5 164.73 27.28 177.83 23.81 190.88 C22.28 196.74 22.74 201.87 25.36 207.3 C30.52 213.73 40.51 216.31 48.06 218.94 C55.92 221.87 59.8 226.54 63.56 233.88 C65.51 238.66 65.74 243.39 65.12 248.5 C64.12 249.5 64.12 249.5 60.25 249.88 C58.06 249.84 58.06 249.84 56.12 249.5 C52.78 245.94 52.25 241.14 51.12 236.5 C48.57 232.67 46.12 232.45 41.88 231.5 C41.16 231.33 40.45 231.16 39.71 230.99 C35.1 229.9 30.46 228.95 25.81 228 C19.67 226.72 13.94 224.84 8.12 222.5 C3.7 226.43 1.73 232.02 0.73 237.77 C0.18 249.04 7.07 259.54 12.32 269.04 C13.03 270.36 13.03 270.36 13.76 271.71 C14.19 272.49 14.62 273.26 15.07 274.07 C16.12 276.5 16.12 276.5 17.12 282.5 C-3 282.5 -23.13 282.5 -43.88 282.5 C-25.99 300.38 -1.34 313.12 20.31 325.84 C22.89 327.36 25.45 328.9 28.01 330.44 C29.42 331.27 30.84 332.11 32.25 332.94 C32.86 333.31 33.47 333.68 34.09 334.06 C38.34 336.51 41.28 337.27 46.12 336.5 C50.11 334.77 53.82 332.63 57.56 330.44 C58.65 329.81 59.75 329.18 60.87 328.54 C78.09 318.58 94.89 307.99 111.12 296.5 C112.29 295.69 113.45 294.87 114.61 294.06 C121.29 289.37 127.82 284.51 134.31 279.56 C135.04 279.01 135.78 278.45 136.53 277.88 C137.21 277.35 137.9 276.83 138.61 276.29 C139.21 275.82 139.82 275.35 140.45 274.88 C142.1 273.52 143.62 272.01 145.12 270.5 C142.15 269.51 139.18 268.52 136.12 267.5 C134.55 262.39 135.55 259.11 137.84 254.5 C139.86 251.37 141.54 250.45 145.12 249.5 C148.19 249.53 151.11 249.97 154.12 250.5 C155.48 250.69 156.83 250.88 158.19 251.06 C159.16 251.21 160.13 251.35 161.12 251.5 C158.39 245.93 155.09 240.92 151.31 236 C150.89 235.44 150.46 234.87 150.02 234.29 C147.38 230.89 144.57 228.08 141.38 225.19 C138.69 222.24 138.13 221.03 138.08 216.99 C138.39 214.26 138.88 211.57 139.4 208.88 C140.27 204.23 140.32 199.71 140.25 195 C140.24 194.25 140.23 193.5 140.22 192.73 C140.2 190.99 140.16 189.24 140.12 187.5 C139.8 187.5 139.46 187.5 139.12 187.5 C139.06 188.4 139 189.31 138.94 190.24 C138.82 192.01 138.82 192.01 138.69 193.81 C138.61 194.98 138.53 196.16 138.44 197.36 C138.12 200.5 138.12 200.5 137.12 203.5 C137.51 205.64 137.51 205.64 138.12 207.5 C137.46 207.5 136.81 207.5 136.12 207.5 C135.64 210.6 135.16 213.71 134.69 216.81 C134.49 218.11 134.49 218.11 134.28 219.42 C132.56 230.71 131.91 241.93 131.61 253.33 C131.18 265.44 131.18 265.44 128.12 268.5 C124.17 268.75 120.21 268.69 116.25 268.69 C115.13 268.7 114.02 268.71 112.87 268.72 C111.8 268.73 110.73 268.73 109.63 268.73 C108.65 268.73 107.67 268.74 106.65 268.74 C104.12 268.5 104.12 268.5 101.12 266.5 C101.12 263.75 101.15 262.03 102.12 259.5 C104.08 257.78 106.07 256.47 108.31 255.15 C111.4 252.34 111.07 248.42 111.3 244.41 C111.59 229.03 111.71 215.14 106.43 200.57 C103.59 192.51 102.02 184.18 100.29 175.83 C99.91 174.08 99.91 174.08 99.53 172.29 C99.31 171.22 99.08 170.16 98.86 169.06 C98.31 166.36 98.31 166.36 96.12 164.5 C95.88 171.15 96.39 177.07 98.12 183.5 C94.05 179.69 90.99 175.66 87.94 171 C87.5 170.35 87.06 169.7 86.61 169.03 C82.05 162.14 80.2 156.86 81.12 148.5 C82.19 144.08 83.6 139.8 85.06 135.5 C87.65 127.8 89.77 120.65 90.12 112.5 C91.87 111.86 91.87 111.86 93.64 111.2 C107.99 105.81 122.64 100.15 132.12 87.5 C131.8 86.84 131.46 86.18 131.12 85.5 C130.4 86.28 130.4 86.28 129.66 87.07 C125.17 91.74 120.79 95.38 115.12 98.5 C114.22 99.04 113.31 99.57 112.38 100.12 C105.18 103.17 96.95 105.22 89.12 105.5 C87.12 104.19 87.12 104.19 86.12 102.5 C86.12 101.84 86.12 101.18 86.12 100.5 C88.63 98.87 88.63 98.87 91.12 97.5 C90.46 97.17 89.81 96.84 89.12 96.5 C87.89 96.95 87.89 96.95 86.62 97.41 C82.08 98.83 77.92 98.91 73.19 98.94 C72.32 98.97 71.45 99 70.56 99.04 C65.11 99.08 61.97 98.36 57.78 94.83 C56.07 93.45 54.42 92.64 52.44 91.72 C48.05 88.78 46.91 85.84 45.12 81 C44.66 79.86 44.66 79.86 44.18 78.7 C41.59 72.05 41.59 72.05 43.12 68.5 C44.8 67.38 44.8 67.38 46.95 66.5 C47.73 66.17 48.51 65.84 49.32 65.5 C50.55 65 50.55 65 51.81 64.5 C61.97 60.33 69.39 56.24 74.31 46 C77.7 39.64 83.48 36.96 89.96 34.36 C99.68 31.71 111.3 32.52 120.12 37.5 C129.92 44.53 132.56 55.74 135.68 66.74 C139.93 81.21 147.19 96.89 159.81 105.69 C164.9 109.4 169.02 113.35 173.09 118.14 C180 126.16 188.19 133.2 196.44 139.81 C202.18 144.44 207.52 149.44 212.89 154.48 C215.99 157.39 219.16 160.18 222.39 162.94 C224.9 165.19 227.2 167.64 229.48 170.12 C231.34 171.69 232.75 172.1 235.12 172.5 C253.54 140.36 262.3 103.7 252.51 67.2 C245.71 43.39 231.09 20.06 209.12 7.5 C197.55 1.28 185.87 -3.35 173.12 -6.5 C171.77 -6.87 171.77 -6.87 170.39 -7.24 C146.4 -12.81 121.57 -6.63 100.71 5.48 C97.76 7.39 94.93 9.39 92.12 11.5 C91.23 12.18 90.33 12.85 89.41 13.55 C78.96 21.77 69.81 31.22 61.51 41.58 C58.57 45.18 55.58 48.71 52.5 52.19 C51.71 53.13 51.71 53.13 50.9 54.08 C48.09 57.21 46.82 58.39 42.54 59.08 C36.44 58.04 33.64 55.28 29.94 50.5 C25.96 45.49 21.79 40.75 17.46 36.05 C15.49 33.9 13.58 31.72 11.69 29.5 C-7.76 7.34 -32.23 -6.09 -61.88 -8.5 C-89.63 -10.17 -117.03 0.34 -137.88 18.5 Z M-185.88 83.5 C-184.88 85.5 -184.88 85.5 -184.88 85.5 Z M-185.88 108.5 C-184.88 110.5 -184.88 110.5 -184.88 110.5 Z M-184.88 116.5 C-183.88 119.5 -183.88 119.5 -183.88 119.5 Z " fill="#F9FBFB" transform="translate(579.875,387.5)"/>
<path d="M0 0 C2.21 1.16 4.23 2.23 6 4 C5.53 11.33 2.55 17.65 -0.5 24.25 C-6.46 38.09 -8.26 53.1 -9 68 C-9.1 69.42 -9.1 69.42 -9.2 70.88 C-9.51 78.3 -8.02 85.2 -5 92 C-3.69 93.36 -2.36 94.7 -1 96 C-0.75 98.75 -0.75 98.75 -1 101 C-0.34 101.33 0.32 101.66 1 102 C2.75 104.63 3.54 106.37 4.44 109.31 C5.36 112.2 6.32 114.65 7.69 117.38 C9 120 9 120 9 123 C10.32 123.33 11.64 123.66 13 124 C12.79 124.99 12.59 125.98 12.38 127 C11.86 130.58 12.36 133.29 13.43 136.71 C15.38 144.53 15.19 152.52 15.19 160.52 C15.19 162.63 15.21 164.74 15.22 166.84 C15.23 168.2 15.23 169.56 15.23 170.91 C15.23 172.13 15.24 173.35 15.24 174.6 C14.99 178.07 14.19 180.75 13 184 C12.7 185.44 12.43 186.89 12.22 188.35 C12.1 189.12 11.98 189.89 11.86 190.68 C11.62 192.27 11.38 193.86 11.14 195.46 C10.5 199.58 9.69 203.15 8 207 C7.66 208.73 7.66 208.73 7.31 210.5 C4.81 220.59 -1.23 228.7 -8 236.31 C-11.53 240.31 -14.28 244.44 -16.78 249.17 C-18 251 -18 251 -21 252 C-21.68 253.32 -22.35 254.66 -23 256 C-27.2 260.31 -31.99 263.7 -37 267 C-38.86 268.58 -40.68 270.19 -42.48 271.83 C-44 273 -44 273 -46 273 C-46.33 273.99 -46.66 274.98 -47 276 C-52.22 279 -52.22 279 -55 279 C-55.33 280.65 -55.66 282.3 -56 284 C-58.31 284 -60.62 284 -63 284 C-63 284.99 -63 285.98 -63 287 C-63.89 287.08 -64.77 287.17 -65.69 287.25 C-69.38 287.76 -72.77 288.84 -76.31 290 C-81.94 291.78 -87.11 292.78 -93 293 C-93.73 293.04 -94.46 293.08 -95.21 293.12 C-100.95 293.29 -106.66 292.78 -112.38 292.25 C-113.16 292.19 -113.95 292.13 -114.76 292.06 C-119.58 291.56 -121.77 290.85 -125 287 C-128.69 285 -132.05 283.96 -136.25 284.12 C-137.16 284.08 -138.07 284.04 -139 284 C-140.94 281.81 -140.94 281.81 -143 279 C-144.08 278.19 -145.19 277.42 -146.31 276.69 C-150.63 273.74 -153.72 270.04 -157 266 C-157.6 265.29 -158.2 264.57 -158.82 263.84 C-169 251.36 -169 251.36 -169 245 C-169.66 244.67 -170.32 244.34 -171 244 C-176.65 232.9 -179.34 220.72 -180.61 208.43 C-180.89 205.2 -180.89 205.2 -181.57 202.94 C-184.3 190.73 -179.05 175.81 -174.19 164.77 C-173.14 162.32 -172.28 159.92 -171.5 157.38 C-169.64 151.56 -167.09 145.75 -163.38 140.88 C-161.72 138.62 -161.51 136.71 -161 134 C-160.34 133.67 -159.68 133.34 -159 133 C-156.83 130.11 -156.83 130.11 -156.21 126.7 C-154.83 122.48 -152.73 119.96 -149.69 116.88 C-148.98 116.13 -148.98 116.13 -148.25 115.36 C-146.85 113.89 -145.43 112.44 -144 111 C-143.16 110.15 -142.32 109.3 -141.45 108.42 C-135.69 102.74 -129.88 97.3 -123 93 C-122.31 92.49 -121.62 91.98 -120.91 91.46 C-110.53 83.82 -99.3 78.7 -87 75 C-77.29 72.07 -72.33 68.98 -66.98 60.14 C-60.79 50.34 -53.18 41.18 -45 33 C-44.43 32.4 -43.87 31.8 -43.29 31.18 C-40.53 28.55 -37.54 26.37 -34.44 24.19 C-33.51 23.53 -33.51 23.53 -32.57 22.86 C-27.96 19.61 -23.24 16.58 -18.47 13.59 C-13.66 10.5 -9.23 7.23 -5.19 3.19 C-3 1 -3 1 0 0 Z M-175 169 C-174 171 -174 171 -174 171 Z M-13 169 C-13 170.65 -13 172.3 -13 174 C-12.67 174 -12.34 174 -12 174 C-12 172.35 -12 170.7 -12 169 C-12.33 169 -12.66 169 -13 169 Z M-180 187 C-180 190.3 -180 193.6 -180 197 C-179.67 197 -179.34 197 -179 197 C-179 193.7 -179 190.4 -179 187 C-179.33 187 -179.66 187 -180 187 Z M-176 227 C-175 229 -175 229 -175 229 Z " fill="#000100" transform="translate(821,60)"/>
<path d="M0 0 C1.08 0.37 1.08 0.37 2.19 0.75 C2.19 1.41 2.19 2.07 2.19 2.75 C3.18 3.08 4.17 3.41 5.19 3.75 C5.83 4.55 6.47 5.36 7.12 6.19 C9.1 8.64 10.31 9.62 13.19 10.75 C13.19 11.41 13.19 12.07 13.19 12.75 C13.99 12.96 14.8 13.16 15.62 13.38 C22.53 16.04 28.36 20.76 34.2 25.24 C35.59 26.3 37 27.32 38.43 28.32 C39.15 28.83 39.88 29.35 40.62 29.88 C41.28 30.33 41.94 30.79 42.62 31.26 C44.49 33.04 44.58 34.3 45.19 36.75 C46.18 37.08 47.17 37.41 48.19 37.75 C49.95 39.65 49.95 39.65 51.88 42.12 C52.58 43.03 53.29 43.94 54.01 44.87 C56.09 47.63 58.15 50.4 60.19 53.19 C60.85 54.09 61.51 55 62.2 55.94 C63.55 57.84 64.85 59.78 66.12 61.75 C70.71 68.69 74.22 71.53 82.19 73.75 C108.5 81.7 133.88 97.22 150.19 119.75 C150.52 120.74 150.85 121.73 151.19 122.75 C152.18 123.08 153.17 123.41 154.19 123.75 C154.93 125.61 155.66 127.47 156.31 129.36 C158.29 134.75 160.91 139.92 164.19 144.62 C169.12 152.33 171.81 161.27 174.58 169.94 C175.42 173.1 175.42 173.1 177.19 175.75 C177.9 179.77 178.32 183.83 178.81 187.88 C178.96 189 179.11 190.13 179.26 191.3 C179.96 197.04 180.36 202.04 179.19 207.75 C179 209.08 178.82 210.41 178.64 211.74 C175.73 231.89 169.43 249.08 156.19 264.75 C155.73 265.55 155.28 266.36 154.81 267.19 C151.76 272 147.64 275.97 142.81 279 C139.92 280.54 139.92 280.54 139.19 283.75 C138.42 283.69 137.66 283.63 136.88 283.56 C131.82 283.82 126.84 284.71 122.19 286.75 C121.91 287.42 121.64 288.09 121.36 288.78 C120.97 289.43 120.59 290.08 120.19 290.75 C117.42 291.39 114.99 291.77 112.19 292 C111.41 292.07 110.64 292.15 109.84 292.23 C96.26 293.46 82.96 292.91 70.19 287.75 C67.51 287.26 64.9 286.99 62.19 286.75 C61.86 285.43 61.53 284.11 61.19 282.75 C59.21 283.08 57.23 283.41 55.19 283.75 C54.82 282.3 54.82 282.3 54.44 280.81 C54.02 279.8 53.61 278.79 53.19 277.75 C51.86 277.41 50.52 277.08 49.19 276.75 C47.27 275.46 45.4 274.1 43.56 272.69 C42.77 272.08 42.77 272.08 41.96 271.46 C40.37 270.23 38.78 268.99 37.19 267.75 C35.89 266.77 35.89 266.77 34.57 265.76 C25.79 258.98 17.56 251.55 11.71 242.06 C9.89 239.3 7.82 236.84 5.69 234.31 C-1.94 225.11 -9.34 213.84 -10.81 201.75 C-11.28 200.9 -11.28 200.9 -11.76 200.03 C-13.17 196.98 -13.53 194.07 -14 190.75 C-14.18 189.53 -14.36 188.32 -14.54 187.06 C-14.78 184.2 -14.75 182.41 -13.81 179.75 C-14.47 179.75 -15.13 179.75 -15.81 179.75 C-19.3 140.44 -19.3 140.44 -12.81 129.75 C-13.51 126.48 -13.51 126.48 -14.81 123.75 C-13.81 122.75 -13.81 122.75 -11.25 122.69 C-10.45 122.71 -9.64 122.73 -8.81 122.75 C-8.81 120.44 -8.81 118.13 -8.81 115.75 C-8.15 115.75 -7.49 115.75 -6.81 115.75 C-7.31 113.28 -7.31 113.28 -7.81 110.75 C-6.82 110.25 -6.82 110.25 -5.81 109.75 C-3.52 104.86 -1.68 99.81 0.19 94.75 C1.18 94.75 2.17 94.75 3.19 94.75 C3.85 91.78 4.51 88.81 5.19 85.75 C5.85 85.75 6.51 85.75 7.19 85.75 C6.98 85.15 6.77 84.55 6.56 83.94 C6.19 81.75 6.19 81.75 8.19 78.75 C8.28 76.17 8.24 73.76 8.06 71.19 C8.01 70.41 7.96 69.63 7.91 68.83 C6.48 49.7 3.79 31.34 -5.12 14.19 C-6.93 10.5 -7.89 7.87 -7.81 3.75 C-5.25 0.73 -4.01 -0.36 0 0 Z M7.19 51.75 C8.19 53.75 8.19 53.75 8.19 53.75 Z M-14.81 134.75 C-13.81 137.75 -13.81 137.75 -13.81 137.75 Z M10.19 167.75 C11.19 170.75 11.19 170.75 11.19 170.75 Z M12.19 168.75 C13.19 170.75 13.19 170.75 13.19 170.75 Z M16.19 194.75 C17.19 196.75 17.19 196.75 17.19 196.75 Z M-8.81 205.75 C-7.81 207.75 -7.81 207.75 -7.81 207.75 Z " fill="#000100" transform="translate(427.8125,60.25)"/>
<path d="M0 0 C1.65 1.32 3.3 2.64 5 4 C4.4 7.69 3.35 10.6 1.69 13.94 C-3.6 25.4 -5.67 36.43 -6 49 C-6.05 50.01 -6.1 51.03 -6.16 52.07 C-6.36 58.16 -5.65 63.46 -3 69 C-2.34 69.66 -1.68 70.32 -1 71 C-1 72.32 -1 73.64 -1 75 C-0.34 75.33 0.32 75.66 1 76 C2.04 78 2.04 78 3.06 80.44 C3.4 81.24 3.75 82.04 4.1 82.87 C4.4 83.57 4.69 84.28 5 85 C5.33 85.66 5.66 86.32 6 87 C5.67 87.99 5.34 88.98 5 90 C5.66 90 6.32 90 7 90 C9.1 91.6 9.9 92.58 10.5 95.17 C10.56 96.02 10.61 96.87 10.67 97.75 C10.73 98.73 10.8 99.71 10.86 100.72 C11.98 127.16 12.28 152.71 -4 175 C-4.65 175.92 -5.31 176.84 -5.98 177.79 C-11.19 185.05 -16.13 191.7 -23.38 197 C-27.05 199.74 -30.65 202.49 -34.06 205.56 C-36.77 207.81 -37.74 208.38 -41 209 C-41 209.99 -41 210.98 -41 212 C-41.8 212.12 -42.61 212.25 -43.44 212.38 C-44.28 212.58 -45.13 212.79 -46 213 C-46.33 213.66 -46.66 214.32 -47 215 C-56.86 218.25 -66.68 219.29 -77 219 C-78.14 218.97 -79.28 218.94 -80.46 218.91 C-82.18 218.83 -82.18 218.83 -83.94 218.75 C-85 218.7 -86.06 218.66 -87.15 218.61 C-90.61 217.87 -91.6 216.51 -94 214 C-96.4 213.28 -96.4 213.28 -98.94 213.06 C-103.84 212.23 -105.74 210.87 -109 207 C-110.38 205.82 -111.78 204.65 -113.19 203.5 C-116.27 200.86 -117.73 198.91 -119 195 C-119.99 194.67 -120.98 194.34 -122 194 C-123.01 191.79 -123.01 191.79 -124 189 C-124.95 187.14 -125.9 185.29 -126.88 183.44 C-132.08 173.02 -134.68 163.65 -135 152 C-135.04 150.96 -135.08 149.93 -135.12 148.86 C-135.52 130.33 -127.65 114.58 -118.9 98.73 C-117.89 96.88 -117.89 96.88 -117 94.32 C-115.71 91.33 -113.9 89.38 -111.69 87 C-110.93 86.18 -110.17 85.35 -109.39 84.5 C-108.6 83.68 -107.81 82.85 -107 82 C-106.24 81.19 -105.48 80.38 -104.69 79.55 C-92.59 68.08 -76.46 58.42 -60.08 54.77 C-53.9 52.49 -50.8 47.15 -47.31 41.94 C-39.05 29.96 -30.53 20.94 -18.1 13.2 C-13.18 10.12 -9.01 7.25 -5 3 C-3.37 1.95 -1.71 0.93 0 0 Z M-9 127 C-8 129 -8 129 -8 129 Z M-134 156 C-133 158 -133 158 -133 158 Z " fill="#000100" transform="translate(980,195)"/>
<path d="M0 0 C4.56 1.08 6.77 3.77 10 7 C12.14 8.54 14.33 9.97 16.54 11.4 C27.51 18.53 36.07 25.55 44 36 C44.54 36.71 45.08 37.41 45.63 38.14 C47.63 40.79 49.61 43.43 51.49 46.17 C55.66 52.09 59.4 54.3 66.38 56.19 C77.08 59.27 87.48 64.87 96 72 C96.76 72.57 97.52 73.14 98.31 73.73 C110.31 82.83 117.99 92.41 124.11 106.06 C125.04 108.08 126.04 110.05 127.06 112.02 C137.27 132.31 138.44 153.84 131.88 175.44 C129.34 183.02 125.53 189.4 121 196 C120.22 197.18 120.22 197.18 119.43 198.38 C116.39 202.76 113.04 205.77 108.64 208.77 C106.85 209.92 106.85 209.92 106 212 C102.95 212.86 99.88 213.47 96.79 214.12 C93.7 214.78 93.7 214.78 92 218 C89.67 218.09 87.33 218.08 85 218 C83.33 218.33 81.67 218.67 80 219 C72.71 219.48 66.09 218.62 59 217 C56.31 216.51 53.62 216.03 50.93 215.56 C50.3 215.38 49.66 215.19 49 215 C48.67 214.34 48.34 213.68 48 213 C46.89 212.85 46.89 212.85 45.75 212.69 C42.04 211.76 40.68 209.72 38 207 C35.84 205.23 33.6 203.56 31.38 201.88 C22.75 195.22 14.95 188.21 9 179 C6.89 176.12 4.75 173.25 2.61 170.39 C1 168 1 168 1 166 C0.34 166 -0.32 166 -1 166 C-1.12 164.87 -1.25 163.73 -1.38 162.56 C-1.58 161.39 -1.79 160.21 -2 159 C-2.66 158.67 -3.32 158.34 -4 158 C-11.44 141.5 -13.64 118.78 -10 101 C-9.34 100.01 -8.68 99.02 -8 98 C-8.33 97.34 -8.66 96.68 -9 96 C-7.53 92.26 -7.53 92.26 -5 91 C-4.39 88.64 -4.39 88.64 -4 86 C-3.69 84.92 -3.69 84.92 -3.38 83.81 C-2.79 81.91 -2.79 81.91 -4 80 C-3.01 79.5 -3.01 79.5 -2 79 C-1.34 76.47 -1.34 76.47 -1 74 C-0.34 74.33 0.32 74.66 1 75 C1.5 74.01 1.5 74.01 2 73 C1.34 72.67 0.68 72.34 0 72 C0.63 71.61 1.27 71.22 1.92 70.82 C4.51 68.55 4.73 67.17 5.25 63.81 C5.4 62.91 5.55 62.01 5.7 61.08 C5.85 60.05 5.85 60.05 6 59 C6.66 59 7.32 59 8 59 C7.84 58.28 7.68 57.56 7.52 56.82 C7.03 54.14 6.8 51.61 6.68 48.89 C5.85 34.5 3.88 21.63 -2.7 8.65 C-4 6 -4 6 -3.88 3.75 C-3 2 -3 2 0 0 Z M7 34 C8 38 8 38 8 38 Z M8 50 C9 54 9 54 9 54 Z M7 61 C8 63 8 63 8 63 Z M11 127 C12 129 12 129 12 129 Z M-8 140 C-7 142 -7 142 -7 142 Z " fill="#000100" transform="translate(266,195)"/>
<path d="M0 0 C2.21 1.16 4.23 2.23 6 4 C5.53 11.33 2.55 17.65 -0.5 24.25 C-6.46 38.09 -8.26 53.1 -9 68 C-9.1 69.42 -9.1 69.42 -9.2 70.88 C-9.51 78.3 -8.02 85.2 -5 92 C-3.69 93.36 -2.36 94.7 -1 96 C-0.75 98.75 -0.75 98.75 -1 101 C-0.34 101.33 0.32 101.66 1 102 C2.75 104.63 3.54 106.37 4.44 109.31 C5.36 112.2 6.32 114.65 7.69 117.38 C9 120 9 120 9 123 C10.32 123.33 11.64 123.66 13 124 C12.79 124.99 12.59 125.98 12.38 127 C11.86 130.58 12.36 133.29 13.43 136.71 C15.38 144.53 15.19 152.52 15.19 160.52 C15.19 162.63 15.21 164.74 15.22 166.84 C15.23 168.2 15.23 169.56 15.23 170.91 C15.23 172.13 15.24 173.35 15.24 174.6 C14.99 178.07 14.19 180.75 13 184 C12.7 185.44 12.43 186.89 12.22 188.35 C12.1 189.12 11.98 189.89 11.86 190.68 C11.62 192.27 11.38 193.86 11.14 195.46 C10.5 199.58 9.69 203.15 8 207 C7.66 208.73 7.66 208.73 7.31 210.5 C4.81 220.59 -1.23 228.7 -8 236.31 C-11.53 240.31 -14.28 244.44 -16.78 249.17 C-18 251 -18 251 -21 252 C-21.68 253.32 -22.35 254.66 -23 256 C-27.2 260.31 -31.99 263.7 -37 267 C-38.86 268.58 -40.68 270.19 -42.48 271.83 C-44 273 -44 273 -46 273 C-46.33 273.99 -46.66 274.98 -47 276 C-52.22 279 -52.22 279 -55 279 C-55.33 280.65 -55.66 282.3 -56 284 C-58.31 284 -60.62 284 -63 284 C-63 284.99 -63 285.98 -63 287 C-63.89 287.08 -64.77 287.17 -65.69 287.25 C-69.38 287.76 -72.77 288.84 -76.31 290 C-81.94 291.78 -87.11 292.78 -93 293 C-93.73 293.04 -94.46 293.08 -95.21 293.12 C-100.95 293.29 -106.66 292.78 -112.38 292.25 C-113.16 292.19 -113.95 292.13 -114.76 292.06 C-119.58 291.56 -121.77 290.85 -125 287 C-128.69 285 -132.05 283.96 -136.25 284.12 C-137.16 284.08 -138.07 284.04 -139 284 C-140.94 281.81 -140.94 281.81 -143 279 C-144.08 278.19 -145.19 277.42 -146.31 276.69 C-150.63 273.74 -153.72 270.04 -157 266 C-157.6 265.29 -158.2 264.57 -158.82 263.84 C-169 251.36 -169 251.36 -169 245 C-169.66 244.67 -170.32 244.34 -171 244 C-176.65 232.9 -179.34 220.72 -180.61 208.43 C-180.89 205.2 -180.89 205.2 -181.57 202.94 C-184.3 190.73 -179.05 175.81 -174.19 164.77 C-173.14 162.32 -172.28 159.92 -171.5 157.38 C-169.64 151.56 -167.09 145.75 -163.38 140.88 C-161.72 138.62 -161.51 136.71 -161 134 C-160.34 133.67 -159.68 133.34 -159 133 C-156.83 130.11 -156.83 130.11 -156.21 126.7 C-154.83 122.48 -152.73 119.96 -149.69 116.88 C-148.98 116.13 -148.98 116.13 -148.25 115.36 C-146.85 113.89 -145.43 112.44 -144 111 C-143.16 110.15 -142.32 109.3 -141.45 108.42 C-135.69 102.74 -129.88 97.3 -123 93 C-122.31 92.49 -121.62 91.98 -120.91 91.46 C-110.53 83.82 -99.3 78.7 -87 75 C-77.29 72.07 -72.33 68.98 -66.98 60.14 C-60.79 50.34 -53.18 41.18 -45 33 C-44.43 32.4 -43.87 31.8 -43.29 31.18 C-40.53 28.55 -37.54 26.37 -34.44 24.19 C-33.51 23.53 -33.51 23.53 -32.57 22.86 C-27.96 19.61 -23.24 16.58 -18.47 13.59 C-13.66 10.5 -9.23 7.23 -5.19 3.19 C-3 1 -3 1 0 0 Z M-24.6 37.52 C-26.39 39.39 -28.14 41.28 -29.88 43.19 C-30.5 43.86 -31.12 44.54 -31.77 45.23 C-34.85 48.59 -37.85 51.98 -40.75 55.5 C-43.2 58.39 -45.73 60.18 -48.94 62.19 C-55.32 66.42 -58.45 72.36 -62 79 C-62.42 79.78 -62.84 80.56 -63.28 81.37 C-64.82 84.36 -66.15 87.37 -67.38 90.5 C-67.91 91.66 -68.45 92.81 -69 94 C-69.32 94.68 -69.63 95.37 -69.96 96.07 C-72.23 99.98 -74.02 101.69 -78.39 103.08 C-80.41 103.54 -82.44 103.95 -84.47 104.36 C-96.33 106.91 -106.91 114.19 -116 122 C-116.67 122.54 -117.34 123.08 -118.04 123.64 C-123.5 128.15 -127.76 133.34 -132 139 C-132.6 139.78 -133.2 140.56 -133.81 141.37 C-142.26 152.86 -147.43 165.82 -151.88 179.25 C-152.24 180.33 -152.24 180.33 -152.6 181.44 C-156.2 192.32 -158.83 202.46 -158 214 C-157.98 215.07 -157.95 216.14 -157.93 217.25 C-157.18 226.55 -151.73 233.04 -146 240 C-145.21 240.96 -144.43 241.91 -143.62 242.9 C-135.49 252.32 -126.44 258.22 -115 263 C-113.55 263.77 -113.55 263.77 -112.06 264.56 C-99.91 270.27 -89.07 266.98 -76.98 262.73 C-71.82 260.82 -66.91 258.46 -62 256 C-61.08 255.58 -60.16 255.17 -59.21 254.74 C-50.63 250.61 -44.19 244.12 -38 237 C-38 236.34 -38 235.68 -38 235 C-37.42 234.79 -36.85 234.59 -36.25 234.38 C-29.48 230.24 -25.49 219.39 -22.87 212.21 C-22.03 210.09 -21.06 208.26 -19.88 206.31 C-17.93 202.87 -17.05 199.8 -16 196 C-15.47 194.53 -15.47 194.53 -14.93 193.03 C-6.53 168.41 -13.83 143.47 -24.75 121.06 C-25.14 120.29 -25.53 119.53 -25.93 118.73 C-28.19 114.15 -29.68 109.88 -30.61 104.85 C-30.94 102.92 -30.94 102.92 -32 101 C-34.09 83.64 -29.12 69.2 -23.18 53.2 C-21.91 49.75 -20.74 46.28 -19.59 42.79 C-18.89 40.65 -18.12 38.54 -17.31 36.44 C-16.88 35.3 -16.45 34.17 -16 33 C-19.59 33 -22.07 35.11 -24.6 37.52 Z M-175 169 C-174 171 -174 171 -174 171 Z M-180 187 C-180 190.3 -180 193.6 -180 197 C-179.67 197 -179.34 197 -179 197 C-179 193.7 -179 190.4 -179 187 C-179.33 187 -179.66 187 -180 187 Z M-176 227 C-175 229 -175 229 -175 229 Z " fill="#F9FBFB" transform="translate(821,60)"/>
<path d="M0 0 C1.08 0.37 1.08 0.37 2.19 0.75 C2.19 1.41 2.19 2.07 2.19 2.75 C3.18 3.08 4.17 3.41 5.19 3.75 C5.83 4.55 6.47 5.36 7.12 6.19 C9.1 8.64 10.31 9.62 13.19 10.75 C13.19 11.41 13.19 12.07 13.19 12.75 C13.99 12.96 14.8 13.16 15.62 13.38 C22.53 16.04 28.36 20.76 34.2 25.24 C35.59 26.3 37 27.32 38.43 28.32 C39.15 28.83 39.88 29.35 40.62 29.88 C41.28 30.33 41.94 30.79 42.62 31.26 C44.49 33.04 44.58 34.3 45.19 36.75 C46.18 37.08 47.17 37.41 48.19 37.75 C49.95 39.65 49.95 39.65 51.88 42.12 C52.58 43.03 53.29 43.94 54.01 44.87 C56.09 47.63 58.15 50.4 60.19 53.19 C60.85 54.09 61.51 55 62.2 55.94 C63.55 57.84 64.85 59.78 66.12 61.75 C70.71 68.69 74.22 71.53 82.19 73.75 C108.5 81.7 133.88 97.22 150.19 119.75 C150.52 120.74 150.85 121.73 151.19 122.75 C152.18 123.08 153.17 123.41 154.19 123.75 C154.93 125.61 155.66 127.47 156.31 129.36 C158.29 134.75 160.91 139.92 164.19 144.62 C169.12 152.33 171.81 161.27 174.58 169.94 C175.42 173.1 175.42 173.1 177.19 175.75 C177.9 179.77 178.32 183.83 178.81 187.88 C178.96 189 179.11 190.13 179.26 191.3 C179.96 197.04 180.36 202.04 179.19 207.75 C179 209.08 178.82 210.41 178.64 211.74 C175.73 231.89 169.43 249.08 156.19 264.75 C155.73 265.55 155.28 266.36 154.81 267.19 C151.76 272 147.64 275.97 142.81 279 C139.92 280.54 139.92 280.54 139.19 283.75 C138.42 283.69 137.66 283.63 136.88 283.56 C131.82 283.82 126.84 284.71 122.19 286.75 C121.91 287.42 121.64 288.09 121.36 288.78 C120.97 289.43 120.59 290.08 120.19 290.75 C117.42 291.39 114.99 291.77 112.19 292 C111.41 292.07 110.64 292.15 109.84 292.23 C96.26 293.46 82.96 292.91 70.19 287.75 C67.51 287.26 64.9 286.99 62.19 286.75 C61.86 285.43 61.53 284.11 61.19 282.75 C59.21 283.08 57.23 283.41 55.19 283.75 C54.82 282.3 54.82 282.3 54.44 280.81 C54.02 279.8 53.61 278.79 53.19 277.75 C51.86 277.41 50.52 277.08 49.19 276.75 C47.27 275.46 45.4 274.1 43.56 272.69 C42.77 272.08 42.77 272.08 41.96 271.46 C40.37 270.23 38.78 268.99 37.19 267.75 C35.89 266.77 35.89 266.77 34.57 265.76 C25.79 258.98 17.56 251.55 11.71 242.06 C9.89 239.3 7.82 236.84 5.69 234.31 C-1.94 225.11 -9.34 213.84 -10.81 201.75 C-11.28 200.9 -11.28 200.9 -11.76 200.03 C-13.17 196.98 -13.53 194.07 -14 190.75 C-14.18 189.53 -14.36 188.32 -14.54 187.06 C-14.78 184.2 -14.75 182.41 -13.81 179.75 C-14.47 179.75 -15.13 179.75 -15.81 179.75 C-19.3 140.44 -19.3 140.44 -12.81 129.75 C-13.51 126.48 -13.51 126.48 -14.81 123.75 C-13.81 122.75 -13.81 122.75 -11.25 122.69 C-10.45 122.71 -9.64 122.73 -8.81 122.75 C-8.81 120.44 -8.81 118.13 -8.81 115.75 C-8.15 115.75 -7.49 115.75 -6.81 115.75 C-7.31 113.28 -7.31 113.28 -7.81 110.75 C-6.82 110.25 -6.82 110.25 -5.81 109.75 C-3.52 104.86 -1.68 99.81 0.19 94.75 C1.18 94.75 2.17 94.75 3.19 94.75 C3.85 91.78 4.51 88.81 5.19 85.75 C5.85 85.75 6.51 85.75 7.19 85.75 C6.98 85.15 6.77 84.55 6.56 83.94 C6.19 81.75 6.19 81.75 8.19 78.75 C8.28 76.17 8.24 73.76 8.06 71.19 C8.01 70.41 7.96 69.63 7.91 68.83 C6.48 49.7 3.79 31.34 -5.12 14.19 C-6.93 10.5 -7.89 7.87 -7.81 3.75 C-5.25 0.73 -4.01 -0.36 0 0 Z M16.19 32.75 C16.62 38.44 17.92 43.12 19.95 48.43 C27.38 68.28 32.42 85.47 28.19 106.75 C28.09 107.47 27.99 108.19 27.89 108.94 C26.92 115.05 24.11 120.15 21.3 125.58 C18.08 131.81 15.51 138.13 13.19 144.75 C12.83 145.65 12.48 146.56 12.12 147.49 C7.9 162.26 8.54 180.61 14.19 194.75 C14.85 196.69 15.52 198.62 16.19 200.56 C17.63 204.45 19.27 208.13 21.2 211.79 C22.26 213.89 23.16 216.02 24.06 218.19 C27.3 225.51 31.61 231.6 37.48 237.05 C39.19 238.75 39.19 238.75 41.09 241.19 C49.29 251.19 61.34 255.95 72.96 260.81 C74.34 261.4 75.73 261.99 77.1 262.61 C81.07 264.39 84.94 265.57 89.19 266.5 C90.34 266.76 91.5 267.03 92.69 267.3 C101.38 268.42 110.92 265.53 118.19 260.75 C119.32 260.32 119.32 260.32 120.47 259.88 C123.49 258.63 126.07 257.07 128.81 255.31 C130.22 254.42 130.22 254.42 131.66 253.5 C133.78 252.03 135.55 250.73 137.19 248.75 C137.19 248.09 137.19 247.43 137.19 246.75 C138.07 246.4 138.07 246.4 138.98 246.04 C141.69 244.46 142.82 242.8 144.56 240.19 C145.16 239.3 145.76 238.4 146.38 237.48 C146.97 236.58 147.57 235.68 148.19 234.75 C148.76 233.93 149.34 233.11 149.94 232.27 C150.47 231.5 151.01 230.73 151.56 229.94 C152.04 229.25 152.53 228.56 153.02 227.86 C158.28 218.35 156.6 200.68 154.09 190.55 C152.95 186.65 151.57 182.85 150.09 179.07 C149.14 176.63 148.27 174.17 147.41 171.71 C143.09 159.49 138.45 148.73 130.25 138.56 C129.66 137.81 129.06 137.05 128.45 136.28 C121.65 127.25 121.65 127.25 113.38 119.69 C112.69 119.2 112.01 118.72 111.31 118.21 C110.61 117.73 109.91 117.25 109.19 116.75 C108.5 116.26 107.81 115.76 107.1 115.25 C99.05 109.65 90.92 105.13 81.25 103.19 C76.11 102.14 73.41 101.11 70.19 96.75 C69.54 95.99 68.88 95.22 68.21 94.43 C66.16 91.71 65.06 89.36 63.88 86.19 C59.46 75.27 54.46 67.08 45.19 59.75 C36 52.17 28.12 43.3 20.62 34.08 C19.15 32.41 19.15 32.41 16.19 32.75 Z M7.19 51.75 C8.19 53.75 8.19 53.75 8.19 53.75 Z M-14.81 134.75 C-13.81 137.75 -13.81 137.75 -13.81 137.75 Z M-8.81 205.75 C-7.81 207.75 -7.81 207.75 -7.81 207.75 Z " fill="#F9FBFB" transform="translate(427.8125,60.25)"/>
<path d="M0 0 C1.65 1.32 3.3 2.64 5 4 C4.4 7.69 3.35 10.6 1.69 13.94 C-3.6 25.4 -5.67 36.43 -6 49 C-6.05 50.01 -6.1 51.03 -6.16 52.07 C-6.36 58.16 -5.65 63.46 -3 69 C-2.34 69.66 -1.68 70.32 -1 71 C-1 72.32 -1 73.64 -1 75 C-0.34 75.33 0.32 75.66 1 76 C2.04 78 2.04 78 3.06 80.44 C3.4 81.24 3.75 82.04 4.1 82.87 C4.4 83.57 4.69 84.28 5 85 C5.33 85.66 5.66 86.32 6 87 C5.67 87.99 5.34 88.98 5 90 C5.66 90 6.32 90 7 90 C9.1 91.6 9.9 92.58 10.5 95.17 C10.56 96.02 10.61 96.87 10.67 97.75 C10.73 98.73 10.8 99.71 10.86 100.72 C11.98 127.16 12.28 152.71 -4 175 C-4.65 175.92 -5.31 176.84 -5.98 177.79 C-11.19 185.05 -16.13 191.7 -23.38 197 C-27.05 199.74 -30.65 202.49 -34.06 205.56 C-36.77 207.81 -37.74 208.38 -41 209 C-41 209.99 -41 210.98 -41 212 C-41.8 212.12 -42.61 212.25 -43.44 212.38 C-44.28 212.58 -45.13 212.79 -46 213 C-46.33 213.66 -46.66 214.32 -47 215 C-56.86 218.25 -66.68 219.29 -77 219 C-78.14 218.97 -79.28 218.94 -80.46 218.91 C-82.18 218.83 -82.18 218.83 -83.94 218.75 C-85 218.7 -86.06 218.66 -87.15 218.61 C-90.61 217.87 -91.6 216.51 -94 214 C-96.4 213.28 -96.4 213.28 -98.94 213.06 C-103.84 212.23 -105.74 210.87 -109 207 C-110.38 205.82 -111.78 204.65 -113.19 203.5 C-116.27 200.86 -117.73 198.91 -119 195 C-119.99 194.67 -120.98 194.34 -122 194 C-123.01 191.79 -123.01 191.79 -124 189 C-124.95 187.14 -125.9 185.29 -126.88 183.44 C-132.08 173.02 -134.68 163.65 -135 152 C-135.04 150.96 -135.08 149.93 -135.12 148.86 C-135.52 130.33 -127.65 114.58 -118.9 98.73 C-117.89 96.88 -117.89 96.88 -117 94.32 C-115.71 91.33 -113.9 89.38 -111.69 87 C-110.93 86.18 -110.17 85.35 -109.39 84.5 C-108.6 83.68 -107.81 82.85 -107 82 C-106.24 81.19 -105.48 80.38 -104.69 79.55 C-92.59 68.08 -76.46 58.42 -60.08 54.77 C-53.9 52.49 -50.8 47.15 -47.31 41.94 C-39.05 29.96 -30.53 20.94 -18.1 13.2 C-13.18 10.12 -9.01 7.25 -5 3 C-3.37 1.95 -1.71 0.93 0 0 Z M-19 28 C-21.46 30.56 -23.72 33.27 -26 36 C-33.15 44.46 -33.15 44.46 -37.12 47 C-44.32 52 -47.7 61.16 -51.39 68.86 C-54.01 73.97 -54.01 73.97 -56 76 C-58.43 76.77 -58.43 76.77 -61.31 77.25 C-79.82 81.46 -94.03 95.72 -103.96 111.27 C-108.09 118.15 -110.68 125.4 -113.19 133 C-113.72 134.56 -113.72 134.56 -114.26 136.16 C-117.74 146.59 -120.65 159.44 -116 170 C-113.55 173.85 -110.82 177.42 -108 181 C-107.36 181.9 -107.36 181.9 -106.71 182.82 C-100.82 190.87 -86.67 198.17 -77 200 C-63.62 201.12 -48.6 194.63 -37.97 186.76 C-35.53 184.59 -33.26 182.35 -31 180 C-30.07 179.17 -30.07 179.17 -29.13 178.32 C-23.63 173.22 -20.64 168.12 -17.75 161.25 C-17.11 159.79 -17.11 159.79 -16.47 158.3 C-8.73 140.31 -4.91 122.91 -12.04 103.92 C-13.92 99.27 -16 94.88 -18.69 90.62 C-21.13 86.47 -22.01 82.25 -22.88 77.56 C-23.01 76.87 -23.14 76.18 -23.28 75.47 C-24.86 65.76 -22.76 57.19 -19.69 48 C-19.24 46.62 -19.24 46.62 -18.79 45.21 C-17.01 39.75 -15.03 34.41 -12.84 29.09 C-12.17 27.42 -11.57 25.71 -11 24 C-14.29 24 -16.54 25.99 -19 28 Z M-134 156 C-133 158 -133 158 -133 158 Z " fill="#F9FBFB" transform="translate(980,195)"/>
<path d="M0 0 C4.56 1.08 6.77 3.77 10 7 C12.14 8.54 14.33 9.97 16.54 11.4 C27.51 18.53 36.07 25.55 44 36 C44.54 36.71 45.08 37.41 45.63 38.14 C47.63 40.79 49.61 43.43 51.49 46.17 C55.66 52.09 59.4 54.3 66.38 56.19 C77.08 59.27 87.48 64.87 96 72 C96.76 72.57 97.52 73.14 98.31 73.73 C110.31 82.83 117.99 92.41 124.11 106.06 C125.04 108.08 126.04 110.05 127.06 112.02 C137.27 132.31 138.44 153.84 131.88 175.44 C129.34 183.02 125.53 189.4 121 196 C120.22 197.18 120.22 197.18 119.43 198.38 C116.39 202.76 113.04 205.77 108.64 208.77 C106.85 209.92 106.85 209.92 106 212 C102.95 212.86 99.88 213.47 96.79 214.12 C93.7 214.78 93.7 214.78 92 218 C89.67 218.09 87.33 218.08 85 218 C83.33 218.33 81.67 218.67 80 219 C72.71 219.48 66.09 218.62 59 217 C56.31 216.51 53.62 216.03 50.93 215.56 C50.3 215.38 49.66 215.19 49 215 C48.67 214.34 48.34 213.68 48 213 C46.89 212.85 46.89 212.85 45.75 212.69 C42.04 211.76 40.68 209.72 38 207 C35.84 205.23 33.6 203.56 31.38 201.88 C22.75 195.22 14.95 188.21 9 179 C6.89 176.12 4.75 173.25 2.61 170.39 C1 168 1 168 1 166 C0.34 166 -0.32 166 -1 166 C-1.12 164.87 -1.25 163.73 -1.38 162.56 C-1.58 161.39 -1.79 160.21 -2 159 C-2.66 158.67 -3.32 158.34 -4 158 C-11.44 141.5 -13.64 118.78 -10 101 C-9.34 100.01 -8.68 99.02 -8 98 C-8.33 97.34 -8.66 96.68 -9 96 C-7.53 92.26 -7.53 92.26 -5 91 C-4.39 88.64 -4.39 88.64 -4 86 C-3.69 84.92 -3.69 84.92 -3.38 83.81 C-2.79 81.91 -2.79 81.91 -4 80 C-3.01 79.5 -3.01 79.5 -2 79 C-1.34 76.47 -1.34 76.47 -1 74 C-0.34 74.33 0.32 74.66 1 75 C1.5 74.01 1.5 74.01 2 73 C1.34 72.67 0.68 72.34 0 72 C0.63 71.61 1.27 71.22 1.92 70.82 C4.51 68.55 4.73 67.17 5.25 63.81 C5.4 62.91 5.55 62.01 5.7 61.08 C5.85 60.05 5.85 60.05 6 59 C6.66 59 7.32 59 8 59 C7.84 58.28 7.68 57.56 7.52 56.82 C7.03 54.14 6.8 51.61 6.68 48.89 C5.85 34.5 3.88 21.63 -2.7 8.65 C-4 6 -4 6 -3.88 3.75 C-3 2 -3 2 0 0 Z M13 24 C14.57 29.32 16.19 34.63 17.85 39.92 C18.29 41.31 18.72 42.71 19.15 44.11 C20.05 47.01 20.96 49.9 21.99 52.76 C26.88 66.82 23.81 81.55 17.56 94.62 C16.95 95.89 16.33 97.16 15.71 98.43 C11.61 106.98 9.37 114.52 9 124 C8.91 124.83 8.83 125.65 8.74 126.5 C7.96 137.78 12.97 149.31 18.07 159.17 C18.88 160.76 19.6 162.39 20.32 164.02 C27.56 180.26 41.99 189.56 58 196 C67.87 199.68 76.17 201.69 86.19 197.32 C87.58 196.66 87.58 196.66 89 196 C90.06 195.51 91.12 195.03 92.21 194.53 C103.25 189.08 111.11 180.81 117 170 C122.44 151.06 114.82 129.51 106.03 112.74 C104.29 109.79 102.26 107.11 100.12 104.44 C99.72 103.91 99.31 103.39 98.89 102.85 C97.61 101.22 96.31 99.61 95 98 C94.31 97.13 94.31 97.13 93.6 96.24 C90.03 91.87 86.2 88.51 81.56 85.31 C80.87 84.83 80.18 84.35 79.47 83.86 C74.74 80.74 70.4 78.94 64.88 77.75 C56.35 75.82 56.35 75.82 53.32 71.45 C51.09 67.3 49.01 63.09 46.96 58.85 C43.2 51.15 38.94 46.56 32.01 41.59 C28.52 38.83 25.82 35.42 23 32 C21.76 30.49 20.51 28.99 19.25 27.5 C18.7 26.83 18.15 26.16 17.58 25.47 C15.99 23.66 15.99 23.66 13 24 Z M7 34 C8 38 8 38 8 38 Z M8 50 C9 54 9 54 9 54 Z M7 61 C8 63 8 63 8 63 Z M-8 140 C-7 142 -7 142 -7 142 Z " fill="#FAFCFC" transform="translate(266,195)"/>
<path d="M0 0 C0.99 0.66 1.98 1.32 3 2 C3.54 4.73 3.93 7.37 4.25 10.12 C5.57 19.6 8.76 27.48 13 36 C13.4 36.81 13.8 37.61 14.21 38.45 C14.6 39.21 14.6 39.21 15 40 C12.33 39.68 9.67 39.35 7 39 C5.7 38.85 5.7 38.85 4.38 38.69 C2 38 2 38 -1 35.94 C-4.11 33.93 -5.4 33.58 -9 34 C-8.56 30.44 -8.05 27.17 -6.94 23.75 C-6.07 20.27 -6.04 18.13 -6.25 14.62 C-6.42 8.36 -3.9 4.7 0 0 Z " fill="#000100" transform="translate(562,622)"/>
<path d="M0 0 C-2 1 -2 1 -3.92 0.48 C-5.04 0.06 -5.04 0.06 -6.19 -0.38 C-14.54 -3.27 -21.29 -3.71 -29.36 0.12 C-36.01 4.07 -40.62 9.82 -42.63 17.37 C-44.09 27.8 -43.34 35.91 -39 45.49 C-38.67 46.32 -38.34 47.15 -38 48 C-38.33 48.66 -38.66 49.32 -39 50 C-43 43.38 -43 43.38 -43 40 C-43.66 40 -44.32 40 -45 40 C-48.82 28.23 -49.65 18.33 -44 7 C-39.42 -0.58 -31.82 -4.11 -23.5 -6.44 C-14.67 -8.05 -7.33 -4.64 0 0 Z " fill="#000100" transform="translate(783,572)"/>
<path d="M0 0 C0.33 0 0.66 0 1 0 C1.15 0.82 1.29 1.65 1.45 2.5 C2.8 9.48 4.54 16.08 7 22.75 C7.25 23.44 7.5 24.13 7.75 24.84 C9.11 28.39 9.75 29.84 13 32 C16.25 33.11 17.48 33.25 20.62 31.75 C22.97 30.11 22.97 30.11 24.69 28.31 C25.12 27.88 25.55 27.45 26 27 C26.66 27 27.32 27 28 27 C32.6 21.72 34.07 15.79 35 9 C35.33 9 35.66 9 36 9 C36.55 15.33 35.24 20.5 32 26 C26.45 32.12 21.47 36.04 13.1 36.56 C9.68 35.65 8.22 33.69 6 31 C4.9 28.49 4.03 26.22 3.25 23.62 C3.04 22.99 2.83 22.36 2.62 21.7 C1.29 17.5 0.55 13.37 0 9 C-0.21 8.3 -0.41 7.6 -0.62 6.88 C-1.12 4.39 -0.61 2.43 0 0 Z " fill="#010201" transform="translate(673,436)"/>
<path d="M0 0 C11.55 0 23.1 0 35 0 C35 0.33 35 0.66 35 1 C23.45 1 11.9 1 0 1 C0 0.67 0 0.34 0 0 Z " fill="#FAFCFC" transform="translate(454,722)"/>
<path d="M0 0 C10.89 0 21.78 0 33 0 C33 0.33 33 0.66 33 1 C22.11 1 11.22 1 0 1 C0 0.67 0 0.34 0 0 Z " fill="#FAFCFC" transform="translate(308,722)"/>
<path d="" fill="#FAFCFC" transform="translate(0,0)"/>
<path d="M0 0 C0.99 0.5 0.99 0.5 2 1 C1.01 1.5 1.01 1.5 0 2 C0 1.34 0 0.68 0 0 Z " fill="#FAFCFC" transform="translate(432,144)"/>
<path d="M0 0 C2 1 2 1 2 1 Z " fill="#000100" transform="translate(431,592)"/>
<path d="" fill="#FAFCFC" transform="translate(0,0)"/>
<path d="" fill="#FAFCFC" transform="translate(0,0)"/>
<path d="" fill="#FAFCFC" transform="translate(0,0)"/>
<path d="" fill="#FAFCFC" transform="translate(0,0)"/>
<path d="" fill="#FAFCFC" transform="translate(0,0)"/>
<path d="" fill="#FAFCFC" transform="translate(0,0)"/>
<path d="" fill="#FAFCFC" transform="translate(0,0)"/>
<path d="" fill="#FAFCFC" transform="translate(0,0)"/>
<path d="" fill="#FAFCFC" transform="translate(0,0)"/>
<path d="" fill="#FAFCFC" transform="translate(0,0)"/>
<path d="" fill="#FAFCFC" transform="translate(0,0)"/>
<path d="" fill="#FAFCFC" transform="translate(0,0)"/>
<path d="" fill="#FAFCFC" transform="translate(0,0)"/>
<path d="" fill="#FAFCFC" transform="translate(0,0)"/>
<path d="" fill="#FAFCFC" transform="translate(0,0)"/>
<path d="" fill="#FAFCFC" transform="translate(0,0)"/>
<path d="" fill="#FAFCFC" transform="translate(0,0)"/>
<path d="" fill="#FAFCFC" transform="translate(0,0)"/>
<path d="" fill="#FAFCFC" transform="translate(0,0)"/>
<path d="" fill="#FAFCFC" transform="translate(0,0)"/>
<path d="" fill="#FAFCFC" transform="translate(0,0)"/>
<path d="" fill="#FAFCFC" transform="translate(0,0)"/>
<path d="" fill="#FAFCFC" transform="translate(0,0)"/>
<path d="" fill="#FAFCFC" transform="translate(0,0)"/>
</svg>
