<?xml version="1.0" encoding="UTF-8"?>
<!-- Generator: visioncortex VTracer 0.6.3 -->
<svg version="1.1" xmlns="http://www.w3.org/2000/svg" width="1280" height="1205">
<path d="M0 0 C1.18 -0.01 1.18 -0.01 2.38 -0.02 C17.16 -0.09 30.91 1.84 44.94 6.69 C45.82 6.98 46.71 7.28 47.62 7.58 C54.23 9.86 60.16 12.77 66.11 16.45 C70.84 17.91 73.89 16.33 78.31 14.44 C78.97 14.17 79.63 13.9 80.32 13.62 C81.62 13.08 82.93 12.54 84.24 11.99 C100.15 5.37 118.27 0.33 135.58 0.23 C136.77 0.23 136.77 0.23 137.98 0.22 C139.66 0.21 141.33 0.2 143.01 0.2 C145.51 0.19 148.01 0.16 150.52 0.12 C181.33 -0.08 214.47 8.76 237 30.75 C241.74 35.64 245.67 40.7 249.31 46.44 C249.81 47.16 250.31 47.88 250.82 48.62 C260.62 63.48 263.35 78.85 263.15 96.3 C263.15 98.31 263.16 100.32 263.17 102.34 C263.18 106.62 263.17 110.91 263.15 115.2 C263.1 121.98 263.11 128.76 263.13 135.55 C263.14 146.27 263.12 156.99 263.09 167.71 C263.04 186.94 263.03 206.17 263.05 225.4 C263.05 232.14 263.04 238.88 263.01 245.62 C263 249.81 262.99 254 262.99 258.18 C262.99 260.12 262.98 262.06 262.97 264 C262.95 266.65 262.96 269.29 262.96 271.94 C262.95 272.71 262.94 273.47 262.93 274.26 C262.97 279.36 263.85 282.93 266.31 287.44 C271.24 291.63 271.24 291.63 283.31 292.44 C283.31 323.79 283.31 355.14 283.31 387.44 C120.62 387.44 -42.07 387.44 -209.69 387.44 C-209.69 356.75 -209.69 326.06 -209.69 294.44 C-204.08 293.45 -198.47 292.46 -192.69 291.44 C-188.77 289.93 -188.77 289.93 -187.65 287.71 C-185.46 281.06 -185.33 274.89 -185.47 267.93 C-185.49 266.71 -185.5 265.49 -185.51 264.24 C-185.54 261.63 -185.58 259.03 -185.62 256.43 C-185.69 252.5 -185.73 248.57 -185.77 244.63 C-185.85 237.03 -185.95 229.43 -186.06 221.83 C-186.09 219.59 -186.12 217.34 -186.15 215.1 C-186.26 207.24 -186.37 199.39 -186.49 191.53 C-186.59 184.23 -186.69 176.94 -186.79 169.64 C-186.88 163.33 -186.96 157.02 -187.06 150.71 C-187.11 146.96 -187.16 143.21 -187.21 139.46 C-187.27 135.3 -187.33 131.15 -187.39 127 C-187.41 125.77 -187.42 124.53 -187.44 123.26 C-187.45 122.13 -187.47 121.01 -187.49 119.85 C-187.51 118.87 -187.52 117.89 -187.53 116.88 C-187.59 114.3 -187.59 114.3 -188.69 111.44 C-192.86 109.16 -197.35 108.82 -202 108.31 C-203.11 108.18 -203.11 108.18 -204.24 108.05 C-206.06 107.84 -207.87 107.64 -209.69 107.44 C-209.71 94.42 -209.73 81.4 -209.74 68.37 C-209.74 62.33 -209.75 56.28 -209.76 50.24 C-209.77 44.41 -209.78 38.58 -209.78 32.75 C-209.78 30.52 -209.79 28.29 -209.79 26.06 C-209.8 22.95 -209.8 19.84 -209.8 16.73 C-209.8 15.8 -209.81 14.87 -209.81 13.91 C-209.8 7.55 -209.8 7.55 -208.69 6.44 C-205.98 6.31 -203.31 6.25 -200.6 6.23 C-199.75 6.22 -198.9 6.21 -198.02 6.2 C-195.16 6.17 -192.31 6.15 -189.45 6.12 C-187.44 6.1 -185.44 6.08 -183.43 6.06 C-178.04 6 -172.66 5.95 -167.27 5.91 C-163.95 5.88 -160.63 5.84 -157.32 5.81 C-124.77 5.49 -92.23 5.28 -59.69 5.44 C-59.36 7.42 -59.03 9.4 -58.69 11.44 C-58.15 11.25 -57.61 11.06 -57.06 10.86 C-50.64 8.59 -44.18 6.47 -37.69 4.44 C-36.94 4.2 -36.19 3.96 -35.42 3.71 C-23.8 0.15 -12.05 0.05 0 0 Z M-79.69 45.44 C-79.69 40.16 -79.69 34.88 -79.69 29.44 C-115 29.44 -150.31 29.44 -186.69 29.44 C-186.69 47.26 -186.69 65.08 -186.69 83.44 C-182.73 84.43 -178.77 85.42 -174.69 86.44 C-170.56 89.62 -170.56 89.62 -168.99 91.23 C-167.74 92.66 -167.74 92.66 -165.69 92.44 C-164.08 96.7 -163.42 100.27 -163.37 104.82 C-163.35 106.08 -163.33 107.34 -163.31 108.64 C-163.3 110.02 -163.28 111.4 -163.27 112.78 C-163.25 114.23 -163.23 115.69 -163.21 117.14 C-163.16 121.07 -163.12 124.99 -163.09 128.92 C-163.06 131.39 -163.04 133.86 -163.01 136.32 C-162.65 167.66 -162.48 199 -162.66 230.34 C-162.68 233.17 -162.69 235.99 -162.71 238.82 C-162.74 247.88 -162.81 256.95 -162.9 266.01 C-162.93 268.89 -162.95 271.78 -162.96 274.66 C-162.98 278.66 -163.03 282.66 -163.08 286.65 C-163.08 287.83 -163.08 289.01 -163.08 290.23 C-163.22 297.94 -164.24 303.46 -169.44 309.46 C-175.54 314.02 -178.29 313.91 -186.69 315.44 C-186.69 332.93 -186.69 350.42 -186.69 368.44 C-142.8 368.44 -98.91 368.44 -53.69 368.44 C-53.69 351.28 -53.69 334.12 -53.69 316.44 C-55.01 316.11 -56.33 315.78 -57.69 315.44 C-62.84 313.38 -66.69 311.28 -69.69 306.44 C-71.59 301.76 -71.98 297.51 -71.97 292.52 C-71.97 291.74 -71.98 290.96 -71.99 290.16 C-72 287.55 -72.01 284.95 -72.01 282.35 C-72.02 280.48 -72.03 278.61 -72.04 276.74 C-72.07 271.67 -72.08 266.6 -72.09 261.52 C-72.09 258.35 -72.1 255.18 -72.11 252.01 C-72.14 242.09 -72.16 232.17 -72.17 222.24 C-72.17 210.79 -72.21 199.35 -72.27 187.9 C-72.31 179.04 -72.33 170.19 -72.33 161.33 C-72.34 156.04 -72.35 150.76 -72.38 145.47 C-72.42 140.5 -72.42 135.53 -72.4 130.56 C-72.4 128.73 -72.41 126.91 -72.43 125.09 C-72.6 108.47 -72.6 108.47 -67.34 102.77 C-57.56 94.87 -44.72 94.64 -32.69 95.44 C-22.13 96.99 -15.14 99.83 -8.69 108.44 C-6.95 111.38 -6.44 113.49 -6.44 116.9 C-6.44 117.79 -6.43 118.68 -6.43 119.6 C-6.44 120.58 -6.44 121.56 -6.45 122.56 C-6.45 123.6 -6.44 124.64 -6.44 125.71 C-6.44 129.21 -6.45 132.71 -6.46 136.21 C-6.46 138.71 -6.46 141.21 -6.46 143.72 C-6.46 149.11 -6.46 154.51 -6.48 159.9 C-6.49 167.7 -6.5 175.5 -6.5 183.3 C-6.5 195.95 -6.52 208.61 -6.54 221.26 C-6.55 233.55 -6.57 245.84 -6.58 258.14 C-6.58 258.9 -6.58 259.67 -6.58 260.46 C-6.58 266.44 -6.59 272.43 -6.59 278.41 C-6.61 307.75 -6.65 337.1 -6.69 366.44 C30.27 366.44 67.23 366.44 105.31 366.44 C104.98 349.61 104.65 332.78 104.31 315.44 C99.36 313.95 99.36 313.95 94.31 312.44 C88.84 308.95 86.98 305.47 85.31 299.44 C85.04 296.62 84.9 294.03 84.92 291.23 C84.91 290.44 84.91 289.65 84.9 288.84 C84.88 286.23 84.89 283.61 84.89 281 C84.89 279.12 84.88 277.23 84.87 275.35 C84.84 270.25 84.84 265.15 84.84 260.05 C84.84 255.79 84.84 251.53 84.83 247.27 C84.81 237.23 84.8 227.18 84.81 217.13 C84.82 206.77 84.8 196.41 84.76 186.04 C84.73 177.14 84.72 168.23 84.72 159.33 C84.72 154.02 84.72 148.7 84.69 143.38 C84.67 138.39 84.67 133.39 84.69 128.4 C84.7 126.57 84.69 124.73 84.68 122.9 C84.66 120.4 84.67 117.9 84.69 115.39 C84.68 114.67 84.67 113.95 84.65 113.2 C84.75 107.55 86.48 105.28 90.31 101.44 C100.31 93.97 114.37 93.52 126.31 94.44 C135.96 96.15 142.45 100.69 148.31 108.44 C149.47 110.75 149.44 112.09 149.45 114.67 C149.46 115.56 149.46 116.45 149.47 117.37 C149.47 118.85 149.47 118.85 149.47 120.36 C149.48 121.4 149.48 122.44 149.49 123.52 C149.5 127.04 149.51 130.55 149.52 134.07 C149.53 136.59 149.54 139.1 149.55 141.61 C149.57 147.03 149.59 152.45 149.6 157.87 C149.63 165.71 149.65 173.55 149.68 181.39 C149.73 194.1 149.77 206.82 149.82 219.54 C149.85 231.89 149.9 244.25 149.94 256.6 C149.94 257.36 149.95 258.12 149.95 258.91 C149.96 262.72 149.98 266.54 149.99 270.36 C150.1 302.05 150.21 333.75 150.31 365.44 C186.61 365.44 222.91 365.44 260.31 365.44 C260.31 348.28 260.31 331.12 260.31 313.44 C257.34 313.11 254.37 312.78 251.31 312.44 C245.98 309.02 242.56 304.56 240.71 298.46 C240.02 294.98 240.17 291.45 240.18 287.92 C240.18 286.62 240.18 286.62 240.17 285.29 C240.17 282.37 240.17 279.46 240.17 276.55 C240.17 274.46 240.16 272.37 240.16 270.28 C240.15 265.78 240.15 261.28 240.14 256.78 C240.14 249.66 240.12 242.53 240.1 235.41 C240.1 232.97 240.09 230.53 240.08 228.09 C240.08 226.87 240.08 225.64 240.07 224.39 C240.03 207.8 240 191.21 239.99 174.63 C239.98 163.44 239.96 152.26 239.92 141.07 C239.9 135.15 239.89 129.24 239.89 123.32 C239.89 117.75 239.88 112.18 239.85 106.6 C239.85 104.57 239.85 102.53 239.85 100.49 C239.92 79.25 234.92 62.45 219.87 46.83 C198.23 26.55 166.8 22.39 138.27 23.09 C114.07 24.19 92.96 32.64 71.59 43.41 C69.46 44.37 67.63 45.12 65.31 45.44 C62.94 43.78 62.94 43.78 60.31 41.38 C48.63 31.49 36.01 28.38 21.31 25.44 C20.08 25.19 18.85 24.94 17.59 24.68 C-15.93 18.96 -51.09 27.7 -79.69 45.44 Z " fill="#000000" transform="translate(876.6875,721.5625)"/>
<path d="M0 0 C0.95 0 1.91 0 2.89 0 C16.81 0.06 29.74 0.73 42.94 5.5 C44.42 6 45.9 6.49 47.38 6.99 C54.12 9.34 60.56 12.07 66.73 15.71 C72.64 17.81 79.15 13.96 84.62 11.75 C94.56 7.86 104.54 4.87 114.94 2.5 C115.68 2.33 116.42 2.15 117.19 1.98 C123.28 0.65 129.08 0.18 135.31 0.16 C136.75 0.15 136.75 0.15 138.22 0.14 C140.25 0.13 142.28 0.13 144.3 0.13 C147.34 0.13 150.37 0.09 153.4 0.05 C169.36 -0.04 184.61 1.85 199.56 7.69 C200.33 7.98 201.11 8.28 201.9 8.58 C227.61 18.71 246.14 35.04 257.78 60.34 C262.96 72.32 263.78 83.2 263.65 96.12 C263.65 98.13 263.65 100.14 263.66 102.15 C263.67 106.44 263.66 110.73 263.63 115.02 C263.6 121.81 263.6 128.59 263.61 135.38 C263.63 148.55 263.6 161.72 263.57 174.89 C263.53 191.69 263.52 208.49 263.54 225.29 C263.54 232.03 263.53 238.78 263.5 245.52 C263.48 249.71 263.48 253.9 263.49 258.09 C263.49 260.03 263.48 261.97 263.46 263.91 C263.44 266.57 263.45 269.22 263.46 271.87 C263.45 272.63 263.44 273.4 263.42 274.18 C263.48 279.55 264.67 284.14 267.94 288.5 C273.01 291.59 277.99 291.76 283.94 292.5 C283.94 323.85 283.94 355.2 283.94 387.5 C121.25 387.5 -41.44 387.5 -209.06 387.5 C-209.06 356.48 -209.06 325.46 -209.06 293.5 C-203.78 292.84 -198.5 292.18 -193.06 291.5 C-191.41 291.17 -189.76 290.84 -188.06 290.5 C-185.68 283.04 -184.64 276.44 -184.81 268.62 C-184.82 267.48 -184.84 266.34 -184.85 265.16 C-184.9 260.94 -184.98 256.72 -185.06 252.5 C-185.09 250.81 -185.13 249.13 -185.16 247.44 C-185.19 245.6 -185.23 243.77 -185.26 241.94 C-185.28 240.97 -185.3 240 -185.32 239.01 C-185.42 233.69 -185.53 228.38 -185.64 223.06 C-185.95 208.79 -186.11 194.53 -186.16 180.25 C-186.19 174.42 -186.23 168.59 -186.27 162.75 C-186.3 156.94 -186.32 151.12 -186.31 145.31 C-186.32 141.65 -186.34 137.99 -186.38 134.32 C-186.39 132.6 -186.39 130.88 -186.38 129.16 C-186.37 126.78 -186.39 124.41 -186.42 122.03 C-186.41 121.34 -186.4 120.64 -186.39 119.93 C-186.47 116.13 -187 114.58 -189.42 111.59 C-195.66 106.66 -199.87 108.16 -209.06 107.5 C-209.06 74.17 -209.06 40.84 -209.06 6.5 C-171.74 5.96 -171.74 5.96 -156.15 5.74 C-145.36 5.59 -134.58 5.44 -123.8 5.28 C-115.95 5.16 -108.09 5.05 -100.24 4.94 C-96.08 4.89 -91.92 4.83 -87.76 4.76 C-83.85 4.71 -79.94 4.65 -76.03 4.6 C-74.59 4.58 -73.15 4.56 -71.71 4.54 C-69.75 4.5 -67.8 4.48 -65.84 4.46 C-64.74 4.44 -63.64 4.42 -62.51 4.41 C-60.06 4.5 -60.06 4.5 -59.06 5.5 C-59.02 7.5 -59.02 9.5 -59.06 11.5 C-58.41 11.27 -57.76 11.05 -57.08 10.81 C-54.04 9.76 -50.99 8.73 -47.94 7.69 C-46.91 7.33 -45.88 6.97 -44.82 6.61 C-29.61 1.46 -15.94 -0.08 0 0 Z M74.23 42.42 C73.09 43.07 73.09 43.07 71.92 43.72 C70.91 44.31 70.91 44.31 69.88 44.9 C67.94 45.5 67.94 45.5 65.82 44.71 C62.89 42.83 60.25 40.64 57.55 38.45 C50.72 33.35 44.53 30.42 36.25 28.31 C35.35 28.07 34.44 27.82 33.51 27.56 C-3.88 17.68 -41.51 24.17 -75.06 42.5 C-76.39 43.17 -77.72 43.84 -79.06 44.5 C-79.05 43.43 -79.04 42.36 -79.03 41.25 C-79.02 39.86 -79.01 38.46 -79 37.06 C-78.99 36 -78.99 36 -78.97 34.92 C-78.97 33.11 -79.01 31.31 -79.06 29.5 C-80.04 28.31 -80.04 28.31 -81.84 28.38 C-83.01 28.38 -83.01 28.38 -84.21 28.38 C-85.1 28.38 -85.99 28.38 -86.91 28.38 C-87.9 28.38 -88.89 28.38 -89.91 28.39 C-90.94 28.39 -91.97 28.39 -93.04 28.39 C-96.48 28.39 -99.91 28.39 -103.35 28.4 C-105.72 28.4 -108.1 28.41 -110.47 28.41 C-116.74 28.41 -123 28.42 -129.27 28.43 C-135.66 28.44 -142.04 28.45 -148.43 28.45 C-160.98 28.46 -173.52 28.48 -186.06 28.5 C-187.34 31.05 -187.14 32.74 -187.08 35.59 C-187.06 36.65 -187.04 37.71 -187.02 38.81 C-187 39.96 -186.97 41.11 -186.94 42.29 C-186.92 43.46 -186.89 44.64 -186.87 45.85 C-186.79 49.61 -186.71 53.37 -186.62 57.12 C-186.57 59.67 -186.52 62.21 -186.47 64.76 C-186.34 71.01 -186.2 77.25 -186.06 83.5 C-184.82 83.8 -184.82 83.8 -183.56 84.1 C-182.48 84.36 -181.39 84.62 -180.28 84.89 C-179.2 85.15 -178.13 85.41 -177.02 85.68 C-170.88 87.38 -167.35 90.58 -164.13 95.9 C-161.89 101.35 -162.34 107.27 -162.36 113.07 C-162.34 114.52 -162.33 115.98 -162.31 117.43 C-162.27 121.35 -162.26 125.26 -162.26 129.18 C-162.25 133.31 -162.21 137.44 -162.18 141.56 C-162.12 149.15 -162.09 156.73 -162.08 164.31 C-162.07 169.52 -162.05 174.74 -162.02 179.96 C-161.93 196.46 -161.95 212.95 -162.04 229.45 C-162.07 233.74 -162.07 238.04 -162.08 242.33 C-162.1 249.12 -162.14 255.9 -162.2 262.68 C-162.23 266.29 -162.25 269.91 -162.26 273.52 C-162.26 277.51 -162.31 281.5 -162.36 285.48 C-162.35 286.66 -162.35 287.83 -162.34 289.04 C-162.48 296.49 -163.77 302.29 -168.06 308.5 C-170.93 310.75 -170.93 310.75 -173.94 312.06 C-174.92 312.52 -175.91 312.97 -176.93 313.44 C-180.31 314.58 -183.53 315.04 -187.06 315.5 C-187.09 322.89 -187.11 330.27 -187.12 337.66 C-187.12 340.18 -187.13 342.69 -187.14 345.21 C-187.15 348.81 -187.16 352.42 -187.16 356.03 C-187.17 357.16 -187.17 358.29 -187.18 359.46 C-187.18 360.5 -187.18 361.54 -187.18 362.61 C-187.18 363.53 -187.18 364.46 -187.18 365.41 C-187.3 367.49 -187.3 367.49 -186.06 368.5 C-183.13 368.6 -180.22 368.64 -177.29 368.63 C-176.37 368.63 -175.45 368.63 -174.5 368.63 C-171.42 368.64 -168.33 368.64 -165.25 368.63 C-163.09 368.63 -160.93 368.63 -158.77 368.64 C-154.2 368.64 -149.64 368.64 -145.08 368.63 C-139.33 368.62 -133.58 368.63 -127.83 368.63 C-102.88 368.66 -78 368.43 -53.06 367.5 C-53.06 350.67 -53.06 333.84 -53.06 316.5 C-54.38 316.17 -55.7 315.84 -57.06 315.5 C-59.25 314.59 -59.25 314.59 -61.5 313.44 C-62.24 313.08 -62.98 312.71 -63.75 312.34 C-68.63 308.46 -70.77 304.84 -71.54 298.7 C-71.8 293.77 -71.77 288.85 -71.76 283.93 C-71.77 282.03 -71.78 280.13 -71.8 278.23 C-71.83 273.09 -71.84 267.95 -71.83 262.81 C-71.83 258.51 -71.85 254.22 -71.86 249.92 C-71.89 239.78 -71.89 229.64 -71.88 219.51 C-71.87 209.06 -71.9 198.61 -71.96 188.16 C-72.01 179.18 -72.03 170.2 -72.02 161.21 C-72.01 155.85 -72.02 150.49 -72.06 145.14 C-72.1 140.09 -72.09 135.05 -72.06 130.01 C-72.05 128.17 -72.06 126.32 -72.08 124.48 C-72.26 108.82 -72.26 108.82 -67.21 102.96 C-61.62 97.78 -56.13 96.22 -48.69 95.71 C-45.93 95.53 -45.93 95.53 -42.71 94.93 C-33.86 93.88 -22.55 95.33 -15.06 100.5 C-10.97 104.33 -6.49 108.83 -5.81 114.63 C-5.81 115.4 -5.82 116.17 -5.82 116.96 C-5.81 117.85 -5.81 118.74 -5.8 119.66 C-5.81 120.64 -5.82 121.62 -5.82 122.62 C-5.82 123.66 -5.82 124.71 -5.82 125.78 C-5.81 129.28 -5.82 132.77 -5.84 136.27 C-5.84 138.77 -5.84 141.28 -5.83 143.78 C-5.83 149.17 -5.84 154.57 -5.85 159.96 C-5.87 167.76 -5.87 175.56 -5.88 183.36 C-5.88 196.01 -5.89 208.67 -5.91 221.32 C-5.93 233.61 -5.94 245.91 -5.95 258.2 C-5.95 258.96 -5.95 259.73 -5.95 260.52 C-5.96 266.5 -5.96 272.49 -5.97 278.48 C-5.99 307.82 -6.03 337.16 -6.06 366.5 C30.57 366.5 67.2 366.5 104.94 366.5 C104.94 349.34 104.94 332.18 104.94 314.5 C101.97 313.84 99 313.18 95.94 312.5 C90.94 310.14 88.85 307.49 86.77 302.56 C84.87 295.55 85.38 288.07 85.4 280.86 C85.4 278.96 85.39 277.07 85.38 275.18 C85.36 270.06 85.36 264.93 85.37 259.81 C85.37 255.53 85.37 251.25 85.36 246.97 C85.34 236.88 85.34 226.79 85.36 216.69 C85.38 206.28 85.36 195.87 85.33 185.46 C85.3 176.51 85.3 167.57 85.3 158.62 C85.31 153.28 85.31 147.94 85.29 142.6 C85.27 137.58 85.27 132.57 85.3 127.55 C85.3 125.71 85.3 123.87 85.29 122.03 C85.27 119.51 85.29 117 85.31 114.49 C85.3 113.76 85.29 113.03 85.27 112.28 C85.38 106.62 87.04 104.32 90.94 100.5 C94.16 98.86 94.16 98.86 97.56 97.69 C98.69 97.29 99.82 96.89 100.98 96.48 C101.95 96.16 102.93 95.83 103.94 95.5 C105.42 95 105.42 95 106.94 94.5 C119.57 93.48 132.77 92.98 143.38 100.81 C149.57 107.31 150.52 112.29 150.42 120.98 C150.42 122.03 150.43 123.07 150.43 124.15 C150.44 127.63 150.41 131.12 150.39 134.61 C150.39 137.11 150.39 139.62 150.39 142.12 C150.39 147.51 150.38 152.89 150.36 158.28 C150.33 166.07 150.32 173.85 150.31 181.64 C150.3 194.28 150.28 206.91 150.24 219.55 C150.2 231.82 150.17 244.09 150.16 256.36 C150.16 257.13 150.16 257.89 150.15 258.68 C150.15 264.66 150.14 270.64 150.13 276.62 C150.09 305.91 150.01 335.21 149.94 364.5 C186.57 364.5 223.2 364.5 260.94 364.5 C260.94 347.67 260.94 330.84 260.94 313.5 C257.64 312.84 254.34 312.18 250.94 311.5 C245.97 308.58 243.01 304.03 241.34 298.52 C240.65 295.05 240.8 291.53 240.81 288 C240.81 287.14 240.81 286.27 240.81 285.38 C240.8 282.47 240.81 279.56 240.81 276.66 C240.81 274.57 240.81 272.49 240.81 270.41 C240.8 265.92 240.8 261.42 240.8 256.93 C240.8 249.82 240.79 242.71 240.77 235.6 C240.77 234.4 240.76 233.2 240.76 231.96 C240.76 229.5 240.75 227.05 240.75 224.59 C240.71 208.03 240.68 191.48 240.69 174.92 C240.69 163.75 240.67 152.58 240.64 141.42 C240.62 135.51 240.61 129.61 240.62 123.7 C240.63 118.14 240.62 112.57 240.59 107.01 C240.58 104.97 240.59 102.94 240.6 100.91 C240.67 85.77 239.43 71.16 230.12 58.5 C229.48 57.58 229.48 57.58 228.81 56.63 C225.32 51.76 221.51 47.4 216.94 43.5 C216.35 42.98 215.76 42.47 215.16 41.94 C177.06 10.95 113.73 19.52 74.23 42.42 Z " fill="#000000" transform="translate(324.0625,723.5)"/>
<path d="M0 0 C1.01 0.61 2.01 1.23 3.05 1.86 C19.92 13.01 34.12 28.99 46.64 44.75 C48.06 46.34 48.06 46.34 51 46 C53.13 43.78 53.13 43.78 55.25 40.94 C58.43 36.91 61.65 33.21 65.34 29.66 C67.07 27.93 68.62 26.12 70.19 24.25 C90.16 1.32 118.47 -14.64 149 -17 C179.87 -18.61 213.47 -9.72 237 11 C237.81 11.66 238.61 12.33 239.45 13.01 C262.69 32.72 275.38 63 278 93 C280.65 141.66 258.12 185.24 228 222 C227.57 222.54 227.13 223.08 226.69 223.63 C218.81 233.35 210.02 242.16 201.19 251 C200.6 251.59 200.01 252.18 199.4 252.79 C193.11 259.08 186.8 265.26 180 271 C178.88 271.97 177.76 272.95 176.65 273.92 C143.75 302.42 107.53 326.11 70 348 C69.25 348.44 68.5 348.88 67.72 349.33 C52.57 358.15 52.57 358.15 45 357 C41.45 355.63 38.23 353.78 34.94 351.88 C33.98 351.33 33.02 350.79 32.03 350.23 C29.01 348.51 26 346.76 23 345 C22.08 344.47 21.16 343.93 20.22 343.38 C-8.55 326.53 -36.6 307.74 -62.26 286.44 C-64.7 284.42 -67.16 282.43 -69.62 280.44 C-71.42 278.96 -73.21 277.48 -75 276 C-75.99 275.18 -76.98 274.37 -78 273.52 C-87 265.99 -95.39 257.92 -103.66 249.6 C-105.82 247.43 -107.99 245.27 -110.16 243.11 C-117.57 235.72 -124.59 228.28 -131 220 C-131.98 218.79 -132.95 217.59 -133.93 216.39 C-156.01 188.88 -173.36 156.35 -178 121 C-178.18 119.77 -178.36 118.53 -178.55 117.26 C-182.45 85.22 -173.83 53.42 -154 28 C-135.02 5.13 -111.84 -8.6 -83 -15 C-82.14 -15.19 -81.29 -15.39 -80.41 -15.59 C-53.23 -20.22 -23.38 -14.6 0 0 Z M-139.32 32.04 C-158.78 53.51 -166.36 81.88 -165.16 110.33 C-162.59 152.14 -139.22 189.57 -112 220 C-111.23 220.87 -110.46 221.74 -109.67 222.63 C-107.46 225.1 -105.24 227.55 -103 230 C-102.02 231.09 -101.04 232.17 -100.06 233.26 C-94.66 239.21 -89.26 244.93 -83 250 C-80.64 246.19 -80.34 242.1 -79.75 237.75 C-77.72 224.48 -73.67 212.47 -65 202 C-64.34 201.18 -63.69 200.37 -63.01 199.52 C-49.82 183.94 -31.91 174.88 -13.47 166.92 C-12.66 166.56 -11.85 166.21 -11.01 165.85 C-10.28 165.54 -9.56 165.23 -8.81 164.91 C-6.82 164.03 -6.82 164.03 -5 162 C-4.38 157.8 -4.34 153.55 -4.19 149.31 C-4.14 148.08 -4.1 146.85 -4.05 145.59 C-3.84 137.69 -4.35 130.85 -6.3 123.19 C-7.41 118.13 -7.26 113.15 -7 108 C-2.2 108 -1.46 108.94 2.06 112 C5.53 115.29 5.53 115.29 10 116 C10.19 115.29 10.39 114.58 10.59 113.85 C10.85 112.93 11.11 112.01 11.38 111.06 C11.63 110.15 11.89 109.23 12.15 108.29 C13 106 13 106 15 105 C15.43 106.92 15.43 106.92 15.88 108.88 C16.59 111.14 16.59 111.14 18 113 C20.54 113.94 22.89 114.25 25.58 114.58 C28.84 115.15 30.47 116.93 33 119 C35.33 119.63 37.63 120.05 40.01 120.41 C42 121 42 121 44 124 C44.51 129.28 43.78 133.5 41 138 C38.93 140.45 36.84 142.85 34.64 145.18 C31.34 150.84 32.98 157.58 33.81 163.84 C35.24 174.62 34.66 183.86 31.88 194.44 C30.26 201.01 30.68 206.44 33.37 212.64 C38.42 219.94 49.82 222.13 57.87 224.63 C64.61 227.58 68.77 234.08 72.31 240.31 C73.37 244.45 73.84 248.79 73 253 C71.17 254.81 71.17 254.81 69 256 C65.88 255.94 65.88 255.94 63 255 C60.84 251.6 60.43 248.14 59.86 244.22 C58.63 241.04 56.79 239.92 54 238 C51.02 236.99 51.02 236.99 47.77 236.44 C46.58 236.2 45.38 235.96 44.14 235.71 C42.9 235.48 41.66 235.24 40.38 235 C31.59 233.31 23.31 231.36 15 228 C10.11 234.84 8.04 240.65 9 249 C10.86 258.67 16.12 267.06 20.93 275.52 C21.46 276.44 21.98 277.37 22.52 278.32 C22.99 279.15 23.47 279.98 23.96 280.83 C25 283 25 283 25 286 C22.33 287.33 20.25 287.16 17.27 287.21 C16.06 287.23 14.86 287.25 13.63 287.27 C11.67 287.29 11.67 287.29 9.68 287.32 C8.34 287.34 6.99 287.36 5.65 287.38 C2.12 287.43 -1.42 287.48 -4.95 287.53 C-8.56 287.58 -12.16 287.64 -15.77 287.69 C-22.85 287.8 -29.92 287.9 -37 288 C-33.67 291.44 -30.11 294.11 -26.13 296.75 C-25.12 297.42 -25.12 297.42 -24.1 298.1 C-21.92 299.55 -19.74 301 -17.56 302.44 C-16.82 302.93 -16.07 303.43 -15.31 303.93 C2.71 315.88 20.95 327.4 39.9 337.83 C41.68 338.82 43.43 339.89 45.16 340.96 C49.01 342.37 51.41 341.6 55 340 C58.49 338.33 61.87 336.5 65.25 334.62 C66.22 334.09 67.19 333.55 68.19 333 C77.7 327.7 86.9 321.97 96 316 C96.95 315.38 97.89 314.76 98.87 314.12 C116.75 302.4 134.16 290.18 151 277 C150.39 276.7 149.78 276.4 149.14 276.1 C146.32 274.65 144.82 273.64 143 271 C142.51 264.97 144.22 260.58 148 256 C154.1 252.95 162.68 255.7 169 257 C164.24 247.06 157.12 237.45 148.81 230.19 C147.01 228.47 146.08 227.55 145.71 225.06 C145.74 224.34 145.76 223.63 145.79 222.9 C145.82 222.1 145.84 221.31 145.87 220.49 C145.91 219.67 145.96 218.85 146 218 C146.03 217.2 146.07 216.4 146.1 215.58 C146.22 213.2 146.35 210.82 146.5 208.44 C146.55 207.62 146.6 206.8 146.64 205.96 C146.76 203.97 146.88 201.99 147 200 C146.67 200 146.34 200 146 200 C142.73 217.77 140.48 235.45 139.77 253.52 C139.73 254.38 139.69 255.25 139.66 256.14 C139.6 257.74 139.55 259.34 139.52 260.94 C139.35 265.65 138.61 269.04 136 273 C133.2 274.74 131.09 275.25 127.81 275.23 C127.03 275.23 126.25 275.23 125.45 275.22 C124.64 275.21 123.83 275.2 123 275.19 C122.19 275.19 121.39 275.19 120.55 275.19 C116.85 275.16 113.59 275.01 110 274 C107.85 267.77 107.85 267.77 108.44 264.81 C110 263 110 263 113.5 261.38 C115.85 260.12 116.81 259.51 117.77 256.99 C120.45 241.88 120.38 226.16 115.76 211.47 C114.42 207.11 113.2 202.7 111.96 198.3 C110.92 194.65 109.86 191 108.8 187.34 C107.43 182.58 106.16 177.82 105 173 C104.67 173 104.34 173 104 173 C104.12 174.46 104.24 175.92 104.38 177.38 C104.44 178.19 104.51 179 104.59 179.84 C105.17 184.27 106.09 188.62 107 193 C104.59 189.49 102.21 185.97 99.85 182.44 C99.04 181.24 98.23 180.05 97.41 178.86 C91.81 170.7 87.08 163.49 88.54 153.2 C88.9 152.04 89.26 150.88 89.62 149.69 C89.81 149.05 90 148.42 90.19 147.76 C91.11 144.69 92.12 141.65 93.13 138.61 C95.62 131.01 96.74 123.99 97 116 C97.68 115.88 98.36 115.75 99.06 115.62 C111.6 112.96 124.07 107.4 133 98 C129.27 98 128.21 99.06 125.19 101.19 C116.03 107.17 105.77 110.34 95 112 C93 107.25 93 107.25 93 105 C93.66 104.34 94.32 103.68 95 103 C93.29 103.24 93.29 103.24 91.54 103.49 C87.12 104.04 82.76 104.18 78.31 104.19 C77.58 104.2 76.85 104.21 76.09 104.22 C71.94 104.24 68.73 103.86 65 102 C65 101.34 65 100.68 65 100 C63.82 99.46 62.65 98.93 61.44 98.38 C56.72 95.6 55.08 91.85 53 87 C52.7 86.3 52.4 85.6 52.08 84.88 C50.57 81.13 49.62 78.11 50 74 C54.02 71.98 58.03 69.97 62.11 68.07 C62.78 67.75 63.45 67.43 64.15 67.1 C65.51 66.45 66.89 65.81 68.26 65.18 C74.76 62.04 78.28 57.88 81.5 51.38 C85.63 43.77 92.43 40.67 100.5 38.25 C111.31 37.17 122.08 38.55 131.04 45.16 C138.14 51.83 140.46 60.9 143 70 C148.82 89.71 158.07 104.19 174.62 116.44 C178.55 119.43 181.22 122.73 184.14 126.68 C188.97 132.7 195.27 137.43 201.25 142.25 C207.01 146.9 212.37 151.92 217.77 156.98 C222.02 160.97 226.41 164.8 230.86 168.57 C234.4 171.58 237.76 174.66 241 178 C260.58 147.93 268.55 112.58 261.22 77.25 C254.21 48.83 238.7 27.48 214.12 11.75 C190.03 -2.05 160.56 -7.01 133.57 -0.32 C108.39 6.59 87.59 23.95 71.51 43.98 C55.25 63.56 55.25 63.56 49.25 64.38 C41.89 63.53 37.88 56.51 33.55 51.1 C30.36 47.16 26.91 43.47 23.44 39.77 C20.41 36.54 17.5 33.25 14.62 29.88 C9.11 23.73 2.67 18.83 -4 14 C-4.81 13.41 -5.62 12.82 -6.45 12.22 C-48.94 -15.71 -105.75 -3.16 -139.32 32.04 Z M100 55 C100 56.65 100 58.3 100 60 C100.33 60 100.66 60 101 60 C101 58.35 101 56.7 101 55 C100.67 55 100.34 55 100 55 Z M86 59 C86.33 60.65 86.66 62.3 87 64 C88.32 63.34 89.64 62.68 91 62 C91 61.34 91 60.68 91 60 C89.35 59.67 87.7 59.34 86 59 Z M101 60 C101.32 66.04 102.56 71.49 104.31 77.25 C104.51 77.94 104.71 78.62 104.92 79.33 C106.27 83.6 107.86 86.78 111 90 C115.49 90.92 118.98 89.58 122.9 87.47 C127.56 84.21 132.27 79.82 133.72 74.21 C133.86 73.12 133.86 73.12 134 72 C133.5 72.68 133.01 73.36 132.5 74.06 C128.47 78.79 123.84 83.61 118 86 C114.75 86.12 114.75 86.12 112 86 C108.01 77.56 105.04 68.81 102 60 C101.67 60 101.34 60 101 60 Z M134 69 C135 72 135 72 135 72 Z M56 75 C57 77 57 77 57 77 Z M168.62 193.91 C163.22 200.86 162.12 209.43 163 218 C164.12 222.41 165.49 226.71 167 231 C168.12 227.63 167.77 225.43 167 222 C166.21 212.12 167.6 202.86 174 195 C181.01 188.15 187.15 186.76 196.5 186.81 C199 186.85 201.5 186.92 204 187 C192.46 179.3 177.31 184.49 168.62 193.91 Z M168 231 C169 233 169 233 169 233 Z M-11 240 C-14.12 243.2 -15.88 245.23 -16.18 249.75 C-16.1 251.79 -16.01 253.82 -15.91 255.86 C-16.04 260.24 -17.43 263.72 -19.12 267.72 C-20.18 270.06 -20.18 270.06 -20 273 C-18.76 273.27 -17.52 273.54 -16.25 273.81 C-13.66 274.37 -12.18 274.85 -10.09 276.53 C-7.42 278.41 -5.48 278.49 -2.25 278.69 C-0.77 278.79 -0.77 278.79 0.73 278.89 C1.48 278.92 2.23 278.96 3 279 C2.4 275.28 1.32 272.36 -0.38 269 C-3.25 262.83 -4.69 256.65 -6 250 C-6.21 248.99 -6.41 247.99 -6.62 246.95 C-7.1 244.64 -7.55 242.32 -8 240 C-8.99 240 -9.98 240 -11 240 Z " fill="#000000" transform="translate(573,383)"/>
<path d="M0 0 C3.52 1.5 6.61 2.95 9 6 C9 6.66 9 7.32 9 8 C9.85 8.41 9.85 8.41 10.71 8.83 C14.93 10.99 18.94 13.5 23 15.94 C23.9 16.48 24.8 17.01 25.73 17.57 C26.61 18.09 27.48 18.61 28.38 19.15 C29.17 19.63 29.96 20.1 30.77 20.59 C32.95 21.97 35.03 23.33 37 25 C37 25.66 37 26.32 37 27 C37.72 27.23 38.44 27.45 39.19 27.69 C42.64 29.3 44.43 31.18 47 34 C47.93 35.01 47.93 35.01 48.87 36.04 C54 41.72 54 41.72 54 44 C54.66 44 55.32 44 56 44 C57.23 45.43 57.23 45.43 58.61 47.44 C59.37 48.53 59.37 48.53 60.15 49.65 C60.94 50.81 60.94 50.81 61.75 52 C66.4 58.74 66.4 58.74 71.17 65.39 C71.63 66.02 72.09 66.65 72.57 67.3 C77.73 73.43 84.96 74.99 92.41 76.98 C104.32 80.37 115.43 86.15 125 94 C126.29 94.96 127.58 95.92 128.88 96.88 C143.48 107.79 153.51 120.24 161.64 136.45 C163.52 140.17 165.6 143.68 167.87 147.17 C171.93 153.74 174 160.95 175.98 168.35 C176.63 170.68 177.35 172.99 178.14 175.27 C184.6 194.42 180.95 215.2 175 234 C174.69 234.99 174.38 235.99 174.06 237.01 C172.2 242.59 169.84 247.16 166.43 251.95 C165.17 253.76 164.1 255.56 163.06 257.5 C154.4 272.89 140.94 281.62 124.44 287.18 C122.78 287.74 121.14 288.36 119.52 289.04 C106.22 294.13 88 293.81 75.01 288.37 C65.46 284.03 56.08 279.25 47 274 C47 273.34 47 272.68 47 272 C46.44 271.75 45.88 271.49 45.3 271.23 C37.82 267.22 31.25 260.7 25 255 C24.39 254.45 23.79 253.89 23.16 253.32 C19.25 249.6 16.24 245.67 13.36 241.11 C12.01 238.95 12.01 238.95 10.33 236.86 C9 235 9 235 9 233 C8.34 233 7.68 233 7 233 C4.38 229.52 2.21 225.75 0 222 C-0.46 221.22 -0.92 220.44 -1.39 219.64 C-15.19 194.23 -18.27 157.62 -11 130 C-10.14 127.23 -9.13 124.68 -8 122 C-7.51 120.52 -7.03 119.04 -6.56 117.56 C-3.77 109.14 0.3 101.32 4.32 93.43 C13.59 74.53 11.1 51.03 5.19 31.19 C4.95 30.39 4.72 29.6 4.47 28.78 C2.89 23.87 0.79 19.55 -1.87 15.12 C-3.67 11.73 -5.06 7.87 -5 4 C-3.46 2.06 -2.22 1.11 0 0 Z M19 33 C19.1 34.18 19.21 35.35 19.31 36.56 C19.37 37.22 19.43 37.89 19.49 38.57 C20.05 41.22 21.07 43.51 22.17 45.98 C23.76 49.84 24.84 53.87 26 57.88 C27.68 63.62 29.41 69.33 31.35 75 C37.22 93.13 30.43 111 22.38 127.14 C19.81 132.3 17.77 137.52 16 143 C15.61 144.01 15.22 145.02 14.81 146.06 C9.21 166.3 12.17 189.88 22.12 208.19 C22.87 209.43 22.87 209.43 23.63 210.7 C24.96 212.94 25.99 215.16 27 217.56 C35.3 236.67 50.82 251.26 69.97 259.12 C76.9 261.77 83.83 264.12 91 266 C91.94 266.28 92.88 266.56 93.86 266.84 C105.5 269.88 116.89 262.91 126.88 257.42 C139.29 250.12 151.62 237.75 157 224 C157.88 219.27 158.16 214.68 158.19 209.88 C158.2 208.7 158.22 207.52 158.23 206.3 C157.85 195.12 154.97 184.92 151.25 174.44 C150.62 172.6 150.62 172.6 149.98 170.73 C145.98 159.27 141.2 148.87 133.75 139.25 C132.96 138.19 132.96 138.19 132.15 137.1 C130.17 134.47 130.17 134.47 128 132 C127.34 132 126.68 132 126 132 C125.9 131.4 125.8 130.8 125.69 130.18 C124.88 127.61 124.02 126.8 121.94 125.12 C121.3 124.61 120.66 124.09 120.01 123.56 C119.35 123.05 118.68 122.53 118 122 C117.4 121.53 116.8 121.05 116.18 120.56 C107.16 113.62 98.27 106.83 87.02 104.34 C76.87 102.08 76.87 102.08 73 97 C72.36 96.26 71.72 95.52 71.06 94.76 C68.78 91.7 67.48 88.79 66.06 85.25 C61.46 74.16 56.86 65 46 59 C42.85 56.82 40.6 54.57 38.38 51.5 C35.6 47.68 32.59 44.14 29.44 40.62 C28.98 40.1 28.52 39.58 28.05 39.04 C25.27 35.99 22.96 34.19 19 33 Z " fill="#000000" transform="translate(426,61)"/>
<path d="M0 0 C2.69 1.44 2.69 1.44 5 3 C4.79 8.35 3.59 12.17 1.25 17 C-6.92 34.05 -9.08 50.69 -9.38 69.44 C-9.4 70.43 -9.43 71.43 -9.45 72.45 C-9.48 82.8 -5.42 90.58 -0.5 99.44 C2.95 105.81 5.81 112.08 8 119 C8.26 119.74 8.52 120.48 8.79 121.25 C15.6 140.62 16.59 159.87 13 180 C12.86 180.81 12.72 181.62 12.58 182.46 C9.06 202.83 4.03 222.48 -10.87 237.66 C-13.87 240.96 -16.05 244.62 -18.3 248.46 C-22.46 254.67 -28.61 259.08 -34.39 263.71 C-36.07 265.06 -37.74 266.42 -39.41 267.78 C-58.29 283.07 -79.15 293.68 -104 292 C-111.66 291.15 -119.36 289.95 -126.09 286.03 C-128.46 284.75 -130.88 283.97 -133.44 283.12 C-147.06 278.26 -156.38 267.96 -164 256 C-164.6 255.08 -165.2 254.17 -165.81 253.23 C-172.74 242.08 -176.2 229.74 -179 217 C-179.22 216.11 -179.44 215.21 -179.66 214.29 C-182.78 199.53 -180.69 184.17 -176 170 C-175.77 169.3 -175.54 168.59 -175.31 167.87 C-174.57 165.64 -173.82 163.41 -173.06 161.19 C-172.83 160.52 -172.61 159.85 -172.37 159.16 C-168.93 149.51 -163.77 140.59 -158.88 131.62 C-158.35 130.65 -157.83 129.68 -157.29 128.68 C-156.78 127.75 -156.27 126.81 -155.74 125.85 C-155.29 125.01 -154.83 124.18 -154.36 123.31 C-153.03 121.06 -151.7 118.99 -150 117 C-149.34 117 -148.68 117 -148 117 C-147.77 116.46 -147.55 115.93 -147.31 115.38 C-135.82 94.57 -106.19 80.96 -84.54 74.23 C-83.37 73.87 -83.37 73.87 -82.19 73.5 C-81.19 73.21 -81.19 73.21 -80.17 72.91 C-73.82 70.25 -70.61 66.53 -67.12 60.88 C-66.25 59.52 -65.38 58.16 -64.5 56.81 C-63.87 55.83 -63.87 55.83 -63.22 54.82 C-60.43 50.65 -57.21 46.85 -54 43 C-53.19 41.96 -52.38 40.92 -51.55 39.85 C-42.4 28.26 -31.05 21.04 -18.51 13.49 C-13.43 10.4 -8.97 7.03 -4.81 2.75 C-3 1 -3 1 0 0 Z M-18 31 C-23.46 34.41 -26.97 38.21 -30.88 43.3 C-39.26 53.99 -39.26 53.99 -44.27 57.66 C-44.84 58.1 -45.41 58.54 -46 59 C-46 59.66 -46 60.32 -46 61 C-47.98 61.66 -49.96 62.32 -52 63 C-52 63.66 -52 64.32 -52 65 C-53.49 65.5 -53.49 65.5 -55 66 C-55 66.66 -55 67.32 -55 68 C-55.66 68 -56.32 68 -57 68 C-62.58 77.97 -62.58 77.97 -67.12 88.44 C-69.03 93.3 -70.85 97.66 -75 101 C-79.56 102.8 -84.24 103.86 -89 105 C-109.33 111.33 -126.04 127.82 -137.27 145.34 C-139 148 -139 148 -140.48 149.86 C-142.12 152.17 -143.06 154.32 -144.05 156.97 C-144.42 157.95 -144.78 158.92 -145.16 159.92 C-145.54 160.96 -145.92 161.99 -146.31 163.06 C-146.71 164.14 -147.1 165.21 -147.51 166.31 C-148.68 169.54 -149.84 172.77 -151 176 C-151.49 177.33 -151.49 177.33 -151.99 178.69 C-155.89 189.46 -158.22 199.51 -158.03 211.01 C-158 212.79 -158.04 214.57 -158.09 216.35 C-157.42 229.88 -145.22 242.24 -135.94 251.28 C-128.22 258.12 -117.59 262.54 -108 266 C-107.28 266.29 -106.56 266.59 -105.82 266.89 C-94.09 270.72 -78.68 262.75 -68 258 C-67.39 257.73 -66.78 257.47 -66.15 257.19 C-55.11 252.31 -46.89 245.86 -39.29 236.54 C-38 235 -38 235 -35.5 232.62 C-29.69 226.52 -26.42 220.29 -24.15 212.19 C-23.15 209.43 -22.05 207.23 -20.59 204.71 C-12.85 191.13 -10.81 176.38 -12 161 C-12.13 159.17 -12.13 159.17 -12.26 157.3 C-13.69 143.92 -18.74 131.89 -25.24 120.25 C-28.15 114.94 -29.87 109.92 -31 104 C-31.21 102.97 -31.43 101.95 -31.65 100.89 C-34.42 85.84 -31.06 74.06 -26.05 59.98 C-24.15 54.61 -22.33 49.21 -20.5 43.81 C-19.96 42.24 -19.96 42.24 -19.4 40.64 C-19.07 39.67 -18.74 38.71 -18.41 37.71 C-17.96 36.42 -17.96 36.42 -17.51 35.1 C-16.75 32.96 -16.75 32.96 -18 31 Z " fill="#000000" transform="translate(822,61)"/>
<path d="M0 0 C2.41 0.87 3.53 1.89 5.34 3.69 C9.28 7.3 13.54 10 18.09 12.75 C29.97 19.98 29.97 19.98 34.09 24.75 C34.09 25.41 34.09 26.07 34.09 26.75 C34.75 26.75 35.41 26.75 36.09 26.75 C37.45 28.22 37.45 28.22 38.99 30.26 C39.55 31 40.11 31.74 40.69 32.5 C41.28 33.29 41.86 34.07 42.46 34.88 C43.04 35.64 43.62 36.4 44.21 37.18 C53.09 48.94 53.09 48.94 53.09 51.75 C53.89 52.02 54.7 52.29 55.53 52.57 C56.7 52.96 57.88 53.35 59.09 53.75 C59.7 53.94 60.3 54.12 60.93 54.31 C75.43 58.82 87.3 65.27 99.09 74.75 C100.39 75.76 100.39 75.76 101.71 76.78 C118.37 90.44 127.69 113.5 133.09 133.75 C133.36 134.74 133.36 134.74 133.64 135.74 C136.13 146.94 134.15 159.95 131.09 170.75 C130.81 171.79 130.53 172.83 130.25 173.89 C126.05 187.99 116.7 201.81 103.9 209.25 C90.23 216.61 75.47 220.08 59.99 217.17 C48.21 213.62 35.84 207.27 27.05 198.62 C25.07 196.74 23.03 195.3 20.78 193.75 C14.42 188.93 10.05 182.15 5.47 175.7 C4.56 174.42 3.64 173.15 2.71 171.9 C-3.73 163.16 -6.59 153.24 -8.91 142.75 C-9.1 141.95 -9.3 141.15 -9.5 140.32 C-15.66 114.44 -9.62 90.85 2.51 67.83 C6.49 60.28 6.29 54.21 6.09 45.75 C6.07 44.72 6.06 43.68 6.04 42.61 C5.5 30.34 1.9 18.54 -3.91 7.75 C-4.85 4.94 -4.85 4.94 -4.91 2.75 C-3.44 0.44 -2.78 -0.36 0 0 Z M12.09 23.75 C13.36 27.73 14.63 31.71 15.9 35.69 C16.26 36.81 16.62 37.93 16.98 39.08 C17.33 40.18 17.68 41.27 18.05 42.41 C18.39 43.49 18.74 44.58 19.09 45.7 C19.7 47.57 20.34 49.44 21.01 51.29 C22.81 56.3 23.61 60.68 23.53 66 C23.52 66.74 23.51 67.47 23.51 68.22 C23.25 77.07 20.68 84.84 16.65 92.69 C8.27 109.08 5.95 126.49 10.71 144.57 C12.92 150.92 15.87 156.86 19.09 162.75 C19.51 163.58 19.94 164.4 20.38 165.25 C22.98 170.22 25.91 174.95 30.09 178.75 C30.75 178.75 31.41 178.75 32.09 178.75 C32.09 179.41 32.09 180.07 32.09 180.75 C32.75 180.75 33.41 180.75 34.09 180.75 C34.09 181.41 34.09 182.07 34.09 182.75 C34.75 182.75 35.41 182.75 36.09 182.75 C36.09 183.41 36.09 184.07 36.09 184.75 C46.48 192.33 63.74 201.23 76.84 199.44 C81.61 198.2 85.99 196.09 90.4 193.94 C91.43 193.44 91.43 193.44 92.47 192.94 C96.74 190.75 99.83 188.36 103.09 184.75 C103.99 183.8 103.99 183.8 104.9 182.83 C113.52 173.5 113.52 173.5 117.09 161.75 C117.14 160.99 117.19 160.22 117.24 159.43 C118.12 136.3 107.29 112.58 92.09 95.75 C82.31 85.68 71.92 78.45 57.89 76.52 C55.09 75.75 55.09 75.75 53.88 73.93 C53.62 73.21 53.36 72.49 53.09 71.75 C52.59 71.11 52.09 70.46 51.58 69.8 C49.98 67.6 49.18 65.62 48.28 63.07 C45.13 54.95 41.49 49.43 34.09 44.75 C32.27 42.85 30.58 40.86 28.88 38.84 C26.62 36.21 24.2 33.79 21.72 31.36 C20.23 29.89 18.78 28.39 17.34 26.88 C15.2 24.56 15.2 24.56 12.09 23.75 Z " fill="#000000" transform="translate(267.91015625,196.24609375)"/>
<path d="M0 0 C1.65 0.66 3.3 1.32 5 2 C4.74 3.4 4.47 4.79 4.19 6.19 C3.96 7.35 3.96 7.35 3.73 8.54 C3 11 3 11 1.59 13.24 C-0.56 16.98 -1.55 20.78 -2.62 24.94 C-2.84 25.78 -3.06 26.62 -3.29 27.49 C-5.08 34.7 -5.84 41.56 -6 49 C-6.07 49.88 -6.15 50.76 -6.22 51.66 C-6.84 61.64 -1.51 70.14 2.88 78.78 C14.98 102.73 13.86 128.18 7.05 153.52 C6.17 156.11 5.18 158.53 4 161 C3.35 162.36 3.35 162.36 2.7 163.74 C-0.25 169.5 -3.73 174.51 -7.88 179.47 C-9.32 181.18 -10.71 182.94 -12.05 184.72 C-17.84 192.26 -24.32 197.56 -32 203 C-32.8 203.58 -33.59 204.15 -34.41 204.75 C-49.25 215.11 -64.22 220.28 -82.27 217.5 C-92.52 215.14 -102.43 211.1 -111 205 C-111 204.34 -111 203.68 -111 203 C-111.66 203 -112.32 203 -113 203 C-113 202.34 -113 201.68 -113 201 C-113.66 201 -114.32 201 -115 201 C-116.54 198.9 -117.94 196.83 -119.31 194.62 C-119.72 193.98 -120.12 193.34 -120.54 192.68 C-131.34 175.28 -137.64 154.27 -132.91 133.78 C-130.15 123.15 -126.39 113.58 -121 104 C-120.26 102.62 -119.53 101.25 -118.8 99.87 C-111.61 86.48 -103.2 77.95 -91 69 C-90.08 68.32 -89.16 67.65 -88.21 66.95 C-81.83 62.6 -75.14 59.9 -67.89 57.36 C-67.26 57.14 -66.62 56.91 -65.97 56.68 C-64.61 56.21 -63.24 55.75 -61.87 55.3 C-55.54 53.13 -52.52 50 -48.81 44.44 C-44.86 38.68 -40.48 33.35 -36 28 C-34.82 26.49 -34.82 26.49 -33.61 24.95 C-30.91 21.89 -28.26 19.83 -24.88 17.56 C-24.31 17.18 -23.75 16.8 -23.16 16.41 C-19.53 13.96 -15.84 11.63 -12.12 9.31 C-7.7 6.54 -3.86 3.51 0 0 Z M-19.34 29.02 C-19.89 29.57 -20.44 30.12 -21 30.69 C-21.55 31.22 -22.09 31.75 -22.66 32.29 C-25.73 35.37 -27.58 37.81 -29 42 C-30.81 43.12 -30.81 43.12 -33 44 C-35.71 45.43 -35.71 45.43 -38 47 C-38 47.66 -38 48.32 -38 49 C-38.66 49 -39.32 49 -40 49 C-40 49.66 -40 50.32 -40 51 C-40.66 51 -41.32 51 -42 51 C-42.25 51.54 -42.49 52.09 -42.75 52.65 C-43.88 55.15 -45.04 57.64 -46.19 60.12 C-46.77 61.41 -46.77 61.41 -47.36 62.72 C-53.04 74.91 -53.04 74.91 -58.62 76.96 C-60.02 77.17 -60.02 77.17 -61.44 77.38 C-73.81 80 -84.57 87.74 -93 97 C-93 97.66 -93 98.32 -93 99 C-93.66 99 -94.32 99 -95 99 C-102.33 107.43 -106.95 116.39 -110.34 126.96 C-111 129 -111.71 131.02 -112.44 133.04 C-116.37 144.34 -120.01 158.56 -115 170 C-105.92 184.28 -93.57 194.98 -77.06 199.69 C-64.15 201.56 -47.14 193.24 -36.95 185.76 C-34.5 183.61 -32.23 181.38 -30 179 C-29.36 178.36 -28.72 177.73 -28.05 177.07 C-22.97 171.75 -20.04 165.64 -17 159 C-16.56 158.09 -16.11 157.18 -15.66 156.24 C-9.88 144.16 -7.13 133.47 -8 120 C-8.04 119.29 -8.09 118.59 -8.13 117.86 C-8.6 112.16 -10.08 107.34 -12.25 102.06 C-12.72 100.88 -12.72 100.88 -13.2 99.68 C-14.88 95.52 -16.69 91.52 -18.81 87.56 C-24.93 75.78 -24.12 62.2 -20.29 49.88 C-19.86 48.58 -19.43 47.29 -19 46 C-18.74 45.23 -18.49 44.46 -18.22 43.67 C-17.81 42.46 -17.81 42.46 -17.4 41.21 C-16.99 39.99 -16.99 39.99 -16.57 38.75 C-16.03 37.15 -15.49 35.55 -14.93 33.95 C-13.87 30.85 -13 28.3 -13 25 C-16.06 25 -17.28 26.98 -19.34 29.02 Z " fill="#000000" transform="translate(980,196)"/>
<path d="M0 0 C0.99 0 1.98 0 3 0 C3 0.99 3 1.98 3 3 C1.68 3 0.36 3 -1 3 C-0.67 2.01 -0.34 1.02 0 0 Z " fill="#000000" transform="translate(761,402)"/>
<path d="M0 0 C0.66 0 1.32 0 2 0 C1.67 0.66 1.34 1.32 1 2 C0.67 1.34 0.34 0.68 0 0 Z " fill="#000000" transform="translate(431,592)"/>
</svg>
